<mxfile host="app.diagrams.net" agent="Mozilla/5.0 (Windows NT 10.0; Win64; x64) AppleWebKit/537.36 (KHTML, like Gecko) Chrome/130.0.0.0 Whale/4.29.282.14 Safari/537.36" version="25.0.3">
  <diagram name="페이지-1" id="63Xeanp-rrekBfJTOKAw">
    <mxGraphModel dx="2466" dy="1632" grid="0" gridSize="10" guides="1" tooltips="1" connect="1" arrows="1" fold="1" page="0" pageScale="1" pageWidth="827" pageHeight="1169" math="0" shadow="0">
      <root>
        <mxCell id="0" />
        <mxCell id="1" parent="0" />
        <mxCell id="nWNgb4miwz-LYuUAV93a-1" value="정착민" style="shape=table;startSize=30;container=1;collapsible=1;childLayout=tableLayout;fixedRows=1;rowLines=0;fontStyle=1;align=center;resizeLast=1;html=1;fillColor=#dae8fc;strokeColor=#6c8ebf;gradientColor=#7ea6e0;" parent="1" vertex="1">
          <mxGeometry x="32" y="51" width="190" height="220" as="geometry" />
        </mxCell>
        <mxCell id="nWNgb4miwz-LYuUAV93a-2" value="" style="shape=tableRow;horizontal=0;startSize=0;swimlaneHead=0;swimlaneBody=0;fillColor=none;collapsible=0;dropTarget=0;points=[[0,0.5],[1,0.5]];portConstraint=eastwest;top=0;left=0;right=0;bottom=1;" parent="nWNgb4miwz-LYuUAV93a-1" vertex="1">
          <mxGeometry y="30" width="190" height="30" as="geometry" />
        </mxCell>
        <mxCell id="nWNgb4miwz-LYuUAV93a-3" value="기본키" style="shape=partialRectangle;connectable=0;fillColor=none;top=0;left=0;bottom=0;right=0;fontStyle=1;overflow=hidden;whiteSpace=wrap;html=1;" parent="nWNgb4miwz-LYuUAV93a-2" vertex="1">
          <mxGeometry width="46.24137931034471" height="30" as="geometry">
            <mxRectangle width="46.24137931034471" height="30" as="alternateBounds" />
          </mxGeometry>
        </mxCell>
        <mxCell id="nWNgb4miwz-LYuUAV93a-4" value="ColonistID" style="shape=partialRectangle;connectable=0;fillColor=none;top=0;left=0;bottom=0;right=0;align=left;spacingLeft=6;fontStyle=5;overflow=hidden;whiteSpace=wrap;html=1;" parent="nWNgb4miwz-LYuUAV93a-2" vertex="1">
          <mxGeometry x="46.24137931034471" width="143.7586206896553" height="30" as="geometry">
            <mxRectangle width="143.7586206896553" height="30" as="alternateBounds" />
          </mxGeometry>
        </mxCell>
        <mxCell id="nWNgb4miwz-LYuUAV93a-5" value="" style="shape=tableRow;horizontal=0;startSize=0;swimlaneHead=0;swimlaneBody=0;fillColor=none;collapsible=0;dropTarget=0;points=[[0,0.5],[1,0.5]];portConstraint=eastwest;top=0;left=0;right=0;bottom=0;" parent="nWNgb4miwz-LYuUAV93a-1" vertex="1">
          <mxGeometry y="60" width="190" height="30" as="geometry" />
        </mxCell>
        <mxCell id="nWNgb4miwz-LYuUAV93a-6" value="" style="shape=partialRectangle;connectable=0;fillColor=none;top=0;left=0;bottom=0;right=0;editable=1;overflow=hidden;whiteSpace=wrap;html=1;" parent="nWNgb4miwz-LYuUAV93a-5" vertex="1">
          <mxGeometry width="46.24137931034471" height="30" as="geometry">
            <mxRectangle width="46.24137931034471" height="30" as="alternateBounds" />
          </mxGeometry>
        </mxCell>
        <mxCell id="nWNgb4miwz-LYuUAV93a-7" value="성" style="shape=partialRectangle;connectable=0;fillColor=none;top=0;left=0;bottom=0;right=0;align=left;spacingLeft=6;overflow=hidden;whiteSpace=wrap;html=1;" parent="nWNgb4miwz-LYuUAV93a-5" vertex="1">
          <mxGeometry x="46.24137931034471" width="143.7586206896553" height="30" as="geometry">
            <mxRectangle width="143.7586206896553" height="30" as="alternateBounds" />
          </mxGeometry>
        </mxCell>
        <mxCell id="nWNgb4miwz-LYuUAV93a-79" value="" style="shape=tableRow;horizontal=0;startSize=0;swimlaneHead=0;swimlaneBody=0;fillColor=none;collapsible=0;dropTarget=0;points=[[0,0.5],[1,0.5]];portConstraint=eastwest;top=0;left=0;right=0;bottom=0;" parent="nWNgb4miwz-LYuUAV93a-1" vertex="1">
          <mxGeometry y="90" width="190" height="30" as="geometry" />
        </mxCell>
        <mxCell id="nWNgb4miwz-LYuUAV93a-80" value="" style="shape=partialRectangle;connectable=0;fillColor=none;top=0;left=0;bottom=0;right=0;editable=1;overflow=hidden;whiteSpace=wrap;html=1;" parent="nWNgb4miwz-LYuUAV93a-79" vertex="1">
          <mxGeometry width="46.24137931034471" height="30" as="geometry">
            <mxRectangle width="46.24137931034471" height="30" as="alternateBounds" />
          </mxGeometry>
        </mxCell>
        <mxCell id="nWNgb4miwz-LYuUAV93a-81" value="별명" style="shape=partialRectangle;connectable=0;fillColor=none;top=0;left=0;bottom=0;right=0;align=left;spacingLeft=6;overflow=hidden;whiteSpace=wrap;html=1;" parent="nWNgb4miwz-LYuUAV93a-79" vertex="1">
          <mxGeometry x="46.24137931034471" width="143.7586206896553" height="30" as="geometry">
            <mxRectangle width="143.7586206896553" height="30" as="alternateBounds" />
          </mxGeometry>
        </mxCell>
        <mxCell id="nWNgb4miwz-LYuUAV93a-82" value="" style="shape=tableRow;horizontal=0;startSize=0;swimlaneHead=0;swimlaneBody=0;fillColor=none;collapsible=0;dropTarget=0;points=[[0,0.5],[1,0.5]];portConstraint=eastwest;top=0;left=0;right=0;bottom=0;" parent="nWNgb4miwz-LYuUAV93a-1" vertex="1">
          <mxGeometry y="120" width="190" height="30" as="geometry" />
        </mxCell>
        <mxCell id="nWNgb4miwz-LYuUAV93a-83" value="" style="shape=partialRectangle;connectable=0;fillColor=none;top=0;left=0;bottom=0;right=0;editable=1;overflow=hidden;whiteSpace=wrap;html=1;" parent="nWNgb4miwz-LYuUAV93a-82" vertex="1">
          <mxGeometry width="46.24137931034471" height="30" as="geometry">
            <mxRectangle width="46.24137931034471" height="30" as="alternateBounds" />
          </mxGeometry>
        </mxCell>
        <mxCell id="nWNgb4miwz-LYuUAV93a-84" value="마지막 이름" style="shape=partialRectangle;connectable=0;fillColor=none;top=0;left=0;bottom=0;right=0;align=left;spacingLeft=6;overflow=hidden;whiteSpace=wrap;html=1;" parent="nWNgb4miwz-LYuUAV93a-82" vertex="1">
          <mxGeometry x="46.24137931034471" width="143.7586206896553" height="30" as="geometry">
            <mxRectangle width="143.7586206896553" height="30" as="alternateBounds" />
          </mxGeometry>
        </mxCell>
        <mxCell id="nWNgb4miwz-LYuUAV93a-8" value="" style="shape=tableRow;horizontal=0;startSize=0;swimlaneHead=0;swimlaneBody=0;fillColor=none;collapsible=0;dropTarget=0;points=[[0,0.5],[1,0.5]];portConstraint=eastwest;top=0;left=0;right=0;bottom=0;" parent="nWNgb4miwz-LYuUAV93a-1" vertex="1">
          <mxGeometry y="150" width="190" height="30" as="geometry" />
        </mxCell>
        <mxCell id="nWNgb4miwz-LYuUAV93a-9" value="" style="shape=partialRectangle;connectable=0;fillColor=none;top=0;left=0;bottom=0;right=0;editable=1;overflow=hidden;whiteSpace=wrap;html=1;" parent="nWNgb4miwz-LYuUAV93a-8" vertex="1">
          <mxGeometry width="46.24137931034471" height="30" as="geometry">
            <mxRectangle width="46.24137931034471" height="30" as="alternateBounds" />
          </mxGeometry>
        </mxCell>
        <mxCell id="nWNgb4miwz-LYuUAV93a-10" value="나이" style="shape=partialRectangle;connectable=0;fillColor=none;top=0;left=0;bottom=0;right=0;align=left;spacingLeft=6;overflow=hidden;whiteSpace=wrap;html=1;" parent="nWNgb4miwz-LYuUAV93a-8" vertex="1">
          <mxGeometry x="46.24137931034471" width="143.7586206896553" height="30" as="geometry">
            <mxRectangle width="143.7586206896553" height="30" as="alternateBounds" />
          </mxGeometry>
        </mxCell>
        <mxCell id="nWNgb4miwz-LYuUAV93a-11" value="" style="shape=tableRow;horizontal=0;startSize=0;swimlaneHead=0;swimlaneBody=0;fillColor=none;collapsible=0;dropTarget=0;points=[[0,0.5],[1,0.5]];portConstraint=eastwest;top=0;left=0;right=0;bottom=0;" parent="nWNgb4miwz-LYuUAV93a-1" vertex="1">
          <mxGeometry y="180" width="190" height="30" as="geometry" />
        </mxCell>
        <mxCell id="nWNgb4miwz-LYuUAV93a-12" value="" style="shape=partialRectangle;connectable=0;fillColor=none;top=0;left=0;bottom=0;right=0;editable=1;overflow=hidden;whiteSpace=wrap;html=1;" parent="nWNgb4miwz-LYuUAV93a-11" vertex="1">
          <mxGeometry width="46.24137931034471" height="30" as="geometry">
            <mxRectangle width="46.24137931034471" height="30" as="alternateBounds" />
          </mxGeometry>
        </mxCell>
        <mxCell id="nWNgb4miwz-LYuUAV93a-13" value="성별" style="shape=partialRectangle;connectable=0;fillColor=none;top=0;left=0;bottom=0;right=0;align=left;spacingLeft=6;overflow=hidden;whiteSpace=wrap;html=1;" parent="nWNgb4miwz-LYuUAV93a-11" vertex="1">
          <mxGeometry x="46.24137931034471" width="143.7586206896553" height="30" as="geometry">
            <mxRectangle width="143.7586206896553" height="30" as="alternateBounds" />
          </mxGeometry>
        </mxCell>
        <mxCell id="nWNgb4miwz-LYuUAV93a-18" value="건물" style="shape=table;startSize=30;container=1;collapsible=1;childLayout=tableLayout;fixedRows=1;rowLines=0;fontStyle=1;align=center;resizeLast=1;html=1;fillColor=#dae8fc;strokeColor=#6c8ebf;gradientColor=#7ea6e0;" parent="1" vertex="1">
          <mxGeometry x="32" y="337" width="190" height="160" as="geometry" />
        </mxCell>
        <mxCell id="nWNgb4miwz-LYuUAV93a-19" value="" style="shape=tableRow;horizontal=0;startSize=0;swimlaneHead=0;swimlaneBody=0;fillColor=none;collapsible=0;dropTarget=0;points=[[0,0.5],[1,0.5]];portConstraint=eastwest;top=0;left=0;right=0;bottom=1;" parent="nWNgb4miwz-LYuUAV93a-18" vertex="1">
          <mxGeometry y="30" width="190" height="26" as="geometry" />
        </mxCell>
        <mxCell id="nWNgb4miwz-LYuUAV93a-20" value="기본키" style="shape=partialRectangle;connectable=0;fillColor=none;top=0;left=0;bottom=0;right=0;fontStyle=1;overflow=hidden;whiteSpace=wrap;html=1;" parent="nWNgb4miwz-LYuUAV93a-19" vertex="1">
          <mxGeometry width="46.24137931034471" height="26" as="geometry">
            <mxRectangle width="46.24137931034471" height="26" as="alternateBounds" />
          </mxGeometry>
        </mxCell>
        <mxCell id="nWNgb4miwz-LYuUAV93a-21" value="BuildingID" style="shape=partialRectangle;connectable=0;fillColor=none;top=0;left=0;bottom=0;right=0;align=left;spacingLeft=6;fontStyle=5;overflow=hidden;whiteSpace=wrap;html=1;" parent="nWNgb4miwz-LYuUAV93a-19" vertex="1">
          <mxGeometry x="46.24137931034471" width="143.7586206896553" height="26" as="geometry">
            <mxRectangle width="143.7586206896553" height="26" as="alternateBounds" />
          </mxGeometry>
        </mxCell>
        <mxCell id="nWNgb4miwz-LYuUAV93a-22" value="" style="shape=tableRow;horizontal=0;startSize=0;swimlaneHead=0;swimlaneBody=0;fillColor=none;collapsible=0;dropTarget=0;points=[[0,0.5],[1,0.5]];portConstraint=eastwest;top=0;left=0;right=0;bottom=0;" parent="nWNgb4miwz-LYuUAV93a-18" vertex="1">
          <mxGeometry y="56" width="190" height="34" as="geometry" />
        </mxCell>
        <mxCell id="nWNgb4miwz-LYuUAV93a-23" value="" style="shape=partialRectangle;connectable=0;fillColor=none;top=0;left=0;bottom=0;right=0;editable=1;overflow=hidden;whiteSpace=wrap;html=1;" parent="nWNgb4miwz-LYuUAV93a-22" vertex="1">
          <mxGeometry width="46.24137931034471" height="34" as="geometry">
            <mxRectangle width="46.24137931034471" height="34" as="alternateBounds" />
          </mxGeometry>
        </mxCell>
        <mxCell id="nWNgb4miwz-LYuUAV93a-24" value="유형" style="shape=partialRectangle;connectable=0;fillColor=none;top=0;left=0;bottom=0;right=0;align=left;spacingLeft=6;overflow=hidden;whiteSpace=wrap;html=1;" parent="nWNgb4miwz-LYuUAV93a-22" vertex="1">
          <mxGeometry x="46.24137931034471" width="143.7586206896553" height="34" as="geometry">
            <mxRectangle width="143.7586206896553" height="34" as="alternateBounds" />
          </mxGeometry>
        </mxCell>
        <mxCell id="nWNgb4miwz-LYuUAV93a-25" value="" style="shape=tableRow;horizontal=0;startSize=0;swimlaneHead=0;swimlaneBody=0;fillColor=none;collapsible=0;dropTarget=0;points=[[0,0.5],[1,0.5]];portConstraint=eastwest;top=0;left=0;right=0;bottom=0;" parent="nWNgb4miwz-LYuUAV93a-18" vertex="1">
          <mxGeometry y="90" width="190" height="30" as="geometry" />
        </mxCell>
        <mxCell id="nWNgb4miwz-LYuUAV93a-26" value="" style="shape=partialRectangle;connectable=0;fillColor=none;top=0;left=0;bottom=0;right=0;editable=1;overflow=hidden;whiteSpace=wrap;html=1;" parent="nWNgb4miwz-LYuUAV93a-25" vertex="1">
          <mxGeometry width="46.24137931034471" height="30" as="geometry">
            <mxRectangle width="46.24137931034471" height="30" as="alternateBounds" />
          </mxGeometry>
        </mxCell>
        <mxCell id="nWNgb4miwz-LYuUAV93a-27" value="자재" style="shape=partialRectangle;connectable=0;fillColor=none;top=0;left=0;bottom=0;right=0;align=left;spacingLeft=6;overflow=hidden;whiteSpace=wrap;html=1;" parent="nWNgb4miwz-LYuUAV93a-25" vertex="1">
          <mxGeometry x="46.24137931034471" width="143.7586206896553" height="30" as="geometry">
            <mxRectangle width="143.7586206896553" height="30" as="alternateBounds" />
          </mxGeometry>
        </mxCell>
        <mxCell id="nWNgb4miwz-LYuUAV93a-28" value="" style="shape=tableRow;horizontal=0;startSize=0;swimlaneHead=0;swimlaneBody=0;fillColor=none;collapsible=0;dropTarget=0;points=[[0,0.5],[1,0.5]];portConstraint=eastwest;top=0;left=0;right=0;bottom=0;" parent="nWNgb4miwz-LYuUAV93a-18" vertex="1">
          <mxGeometry y="120" width="190" height="30" as="geometry" />
        </mxCell>
        <mxCell id="nWNgb4miwz-LYuUAV93a-29" value="" style="shape=partialRectangle;connectable=0;fillColor=none;top=0;left=0;bottom=0;right=0;editable=1;overflow=hidden;whiteSpace=wrap;html=1;" parent="nWNgb4miwz-LYuUAV93a-28" vertex="1">
          <mxGeometry width="46.24137931034471" height="30" as="geometry">
            <mxRectangle width="46.24137931034471" height="30" as="alternateBounds" />
          </mxGeometry>
        </mxCell>
        <mxCell id="nWNgb4miwz-LYuUAV93a-30" value="상태" style="shape=partialRectangle;connectable=0;fillColor=none;top=0;left=0;bottom=0;right=0;align=left;spacingLeft=6;overflow=hidden;whiteSpace=wrap;html=1;" parent="nWNgb4miwz-LYuUAV93a-28" vertex="1">
          <mxGeometry x="46.24137931034471" width="143.7586206896553" height="30" as="geometry">
            <mxRectangle width="143.7586206896553" height="30" as="alternateBounds" />
          </mxGeometry>
        </mxCell>
        <mxCell id="nWNgb4miwz-LYuUAV93a-34" value="아이템" style="shape=table;startSize=30;container=1;collapsible=1;childLayout=tableLayout;fixedRows=1;rowLines=0;fontStyle=1;align=center;resizeLast=1;html=1;fillColor=#dae8fc;strokeColor=#6c8ebf;gradientColor=#7ea6e0;" parent="1" vertex="1">
          <mxGeometry x="32" y="524" width="190" height="160" as="geometry" />
        </mxCell>
        <mxCell id="nWNgb4miwz-LYuUAV93a-35" value="" style="shape=tableRow;horizontal=0;startSize=0;swimlaneHead=0;swimlaneBody=0;fillColor=none;collapsible=0;dropTarget=0;points=[[0,0.5],[1,0.5]];portConstraint=eastwest;top=0;left=0;right=0;bottom=1;" parent="nWNgb4miwz-LYuUAV93a-34" vertex="1">
          <mxGeometry y="30" width="190" height="30" as="geometry" />
        </mxCell>
        <mxCell id="nWNgb4miwz-LYuUAV93a-36" value="기본키" style="shape=partialRectangle;connectable=0;fillColor=none;top=0;left=0;bottom=0;right=0;fontStyle=1;overflow=hidden;whiteSpace=wrap;html=1;" parent="nWNgb4miwz-LYuUAV93a-35" vertex="1">
          <mxGeometry width="46.24137931034471" height="30" as="geometry">
            <mxRectangle width="46.24137931034471" height="30" as="alternateBounds" />
          </mxGeometry>
        </mxCell>
        <mxCell id="nWNgb4miwz-LYuUAV93a-37" value="ItemID" style="shape=partialRectangle;connectable=0;fillColor=none;top=0;left=0;bottom=0;right=0;align=left;spacingLeft=6;fontStyle=5;overflow=hidden;whiteSpace=wrap;html=1;" parent="nWNgb4miwz-LYuUAV93a-35" vertex="1">
          <mxGeometry x="46.24137931034471" width="143.7586206896553" height="30" as="geometry">
            <mxRectangle width="143.7586206896553" height="30" as="alternateBounds" />
          </mxGeometry>
        </mxCell>
        <mxCell id="nWNgb4miwz-LYuUAV93a-38" value="" style="shape=tableRow;horizontal=0;startSize=0;swimlaneHead=0;swimlaneBody=0;fillColor=none;collapsible=0;dropTarget=0;points=[[0,0.5],[1,0.5]];portConstraint=eastwest;top=0;left=0;right=0;bottom=0;" parent="nWNgb4miwz-LYuUAV93a-34" vertex="1">
          <mxGeometry y="60" width="190" height="30" as="geometry" />
        </mxCell>
        <mxCell id="nWNgb4miwz-LYuUAV93a-39" value="" style="shape=partialRectangle;connectable=0;fillColor=none;top=0;left=0;bottom=0;right=0;editable=1;overflow=hidden;whiteSpace=wrap;html=1;" parent="nWNgb4miwz-LYuUAV93a-38" vertex="1">
          <mxGeometry width="46.24137931034471" height="30" as="geometry">
            <mxRectangle width="46.24137931034471" height="30" as="alternateBounds" />
          </mxGeometry>
        </mxCell>
        <mxCell id="nWNgb4miwz-LYuUAV93a-40" value="이름" style="shape=partialRectangle;connectable=0;fillColor=none;top=0;left=0;bottom=0;right=0;align=left;spacingLeft=6;overflow=hidden;whiteSpace=wrap;html=1;" parent="nWNgb4miwz-LYuUAV93a-38" vertex="1">
          <mxGeometry x="46.24137931034471" width="143.7586206896553" height="30" as="geometry">
            <mxRectangle width="143.7586206896553" height="30" as="alternateBounds" />
          </mxGeometry>
        </mxCell>
        <mxCell id="nWNgb4miwz-LYuUAV93a-41" value="" style="shape=tableRow;horizontal=0;startSize=0;swimlaneHead=0;swimlaneBody=0;fillColor=none;collapsible=0;dropTarget=0;points=[[0,0.5],[1,0.5]];portConstraint=eastwest;top=0;left=0;right=0;bottom=0;" parent="nWNgb4miwz-LYuUAV93a-34" vertex="1">
          <mxGeometry y="90" width="190" height="30" as="geometry" />
        </mxCell>
        <mxCell id="nWNgb4miwz-LYuUAV93a-42" value="" style="shape=partialRectangle;connectable=0;fillColor=none;top=0;left=0;bottom=0;right=0;editable=1;overflow=hidden;whiteSpace=wrap;html=1;" parent="nWNgb4miwz-LYuUAV93a-41" vertex="1">
          <mxGeometry width="46.24137931034471" height="30" as="geometry">
            <mxRectangle width="46.24137931034471" height="30" as="alternateBounds" />
          </mxGeometry>
        </mxCell>
        <mxCell id="nWNgb4miwz-LYuUAV93a-43" value="유형" style="shape=partialRectangle;connectable=0;fillColor=none;top=0;left=0;bottom=0;right=0;align=left;spacingLeft=6;overflow=hidden;whiteSpace=wrap;html=1;" parent="nWNgb4miwz-LYuUAV93a-41" vertex="1">
          <mxGeometry x="46.24137931034471" width="143.7586206896553" height="30" as="geometry">
            <mxRectangle width="143.7586206896553" height="30" as="alternateBounds" />
          </mxGeometry>
        </mxCell>
        <mxCell id="nWNgb4miwz-LYuUAV93a-44" value="" style="shape=tableRow;horizontal=0;startSize=0;swimlaneHead=0;swimlaneBody=0;fillColor=none;collapsible=0;dropTarget=0;points=[[0,0.5],[1,0.5]];portConstraint=eastwest;top=0;left=0;right=0;bottom=0;" parent="nWNgb4miwz-LYuUAV93a-34" vertex="1">
          <mxGeometry y="120" width="190" height="30" as="geometry" />
        </mxCell>
        <mxCell id="nWNgb4miwz-LYuUAV93a-45" value="" style="shape=partialRectangle;connectable=0;fillColor=none;top=0;left=0;bottom=0;right=0;editable=1;overflow=hidden;whiteSpace=wrap;html=1;" parent="nWNgb4miwz-LYuUAV93a-44" vertex="1">
          <mxGeometry width="46.24137931034471" height="30" as="geometry">
            <mxRectangle width="46.24137931034471" height="30" as="alternateBounds" />
          </mxGeometry>
        </mxCell>
        <mxCell id="nWNgb4miwz-LYuUAV93a-46" value="품질" style="shape=partialRectangle;connectable=0;fillColor=none;top=0;left=0;bottom=0;right=0;align=left;spacingLeft=6;overflow=hidden;whiteSpace=wrap;html=1;" parent="nWNgb4miwz-LYuUAV93a-44" vertex="1">
          <mxGeometry x="46.24137931034471" width="143.7586206896553" height="30" as="geometry">
            <mxRectangle width="143.7586206896553" height="30" as="alternateBounds" />
          </mxGeometry>
        </mxCell>
        <mxCell id="nWNgb4miwz-LYuUAV93a-47" value="이벤트" style="shape=table;startSize=30;container=1;collapsible=1;childLayout=tableLayout;fixedRows=1;rowLines=0;fontStyle=1;align=center;resizeLast=1;html=1;fillColor=#dae8fc;strokeColor=#6c8ebf;gradientColor=#7ea6e0;" parent="1" vertex="1">
          <mxGeometry x="32" y="702" width="190" height="130" as="geometry" />
        </mxCell>
        <mxCell id="nWNgb4miwz-LYuUAV93a-48" value="" style="shape=tableRow;horizontal=0;startSize=0;swimlaneHead=0;swimlaneBody=0;fillColor=none;collapsible=0;dropTarget=0;points=[[0,0.5],[1,0.5]];portConstraint=eastwest;top=0;left=0;right=0;bottom=1;" parent="nWNgb4miwz-LYuUAV93a-47" vertex="1">
          <mxGeometry y="30" width="190" height="30" as="geometry" />
        </mxCell>
        <mxCell id="nWNgb4miwz-LYuUAV93a-49" value="기본키" style="shape=partialRectangle;connectable=0;fillColor=none;top=0;left=0;bottom=0;right=0;fontStyle=1;overflow=hidden;whiteSpace=wrap;html=1;" parent="nWNgb4miwz-LYuUAV93a-48" vertex="1">
          <mxGeometry width="46.62068965517261" height="30" as="geometry">
            <mxRectangle width="46.62068965517261" height="30" as="alternateBounds" />
          </mxGeometry>
        </mxCell>
        <mxCell id="nWNgb4miwz-LYuUAV93a-50" value="EventID" style="shape=partialRectangle;connectable=0;fillColor=none;top=0;left=0;bottom=0;right=0;align=left;spacingLeft=6;fontStyle=5;overflow=hidden;whiteSpace=wrap;html=1;" parent="nWNgb4miwz-LYuUAV93a-48" vertex="1">
          <mxGeometry x="46.62068965517261" width="143.3793103448274" height="30" as="geometry">
            <mxRectangle width="143.3793103448274" height="30" as="alternateBounds" />
          </mxGeometry>
        </mxCell>
        <mxCell id="nWNgb4miwz-LYuUAV93a-51" value="" style="shape=tableRow;horizontal=0;startSize=0;swimlaneHead=0;swimlaneBody=0;fillColor=none;collapsible=0;dropTarget=0;points=[[0,0.5],[1,0.5]];portConstraint=eastwest;top=0;left=0;right=0;bottom=0;" parent="nWNgb4miwz-LYuUAV93a-47" vertex="1">
          <mxGeometry y="60" width="190" height="30" as="geometry" />
        </mxCell>
        <mxCell id="nWNgb4miwz-LYuUAV93a-52" value="" style="shape=partialRectangle;connectable=0;fillColor=none;top=0;left=0;bottom=0;right=0;editable=1;overflow=hidden;whiteSpace=wrap;html=1;" parent="nWNgb4miwz-LYuUAV93a-51" vertex="1">
          <mxGeometry width="46.62068965517261" height="30" as="geometry">
            <mxRectangle width="46.62068965517261" height="30" as="alternateBounds" />
          </mxGeometry>
        </mxCell>
        <mxCell id="nWNgb4miwz-LYuUAV93a-53" value="유형" style="shape=partialRectangle;connectable=0;fillColor=none;top=0;left=0;bottom=0;right=0;align=left;spacingLeft=6;overflow=hidden;whiteSpace=wrap;html=1;" parent="nWNgb4miwz-LYuUAV93a-51" vertex="1">
          <mxGeometry x="46.62068965517261" width="143.3793103448274" height="30" as="geometry">
            <mxRectangle width="143.3793103448274" height="30" as="alternateBounds" />
          </mxGeometry>
        </mxCell>
        <mxCell id="nWNgb4miwz-LYuUAV93a-54" value="" style="shape=tableRow;horizontal=0;startSize=0;swimlaneHead=0;swimlaneBody=0;fillColor=none;collapsible=0;dropTarget=0;points=[[0,0.5],[1,0.5]];portConstraint=eastwest;top=0;left=0;right=0;bottom=0;" parent="nWNgb4miwz-LYuUAV93a-47" vertex="1">
          <mxGeometry y="90" width="190" height="30" as="geometry" />
        </mxCell>
        <mxCell id="nWNgb4miwz-LYuUAV93a-55" value="" style="shape=partialRectangle;connectable=0;fillColor=none;top=0;left=0;bottom=0;right=0;editable=1;overflow=hidden;whiteSpace=wrap;html=1;" parent="nWNgb4miwz-LYuUAV93a-54" vertex="1">
          <mxGeometry width="46.62068965517261" height="30" as="geometry">
            <mxRectangle width="46.62068965517261" height="30" as="alternateBounds" />
          </mxGeometry>
        </mxCell>
        <mxCell id="nWNgb4miwz-LYuUAV93a-56" value="기간" style="shape=partialRectangle;connectable=0;fillColor=none;top=0;left=0;bottom=0;right=0;align=left;spacingLeft=6;overflow=hidden;whiteSpace=wrap;html=1;" parent="nWNgb4miwz-LYuUAV93a-54" vertex="1">
          <mxGeometry x="46.62068965517261" width="143.3793103448274" height="30" as="geometry">
            <mxRectangle width="143.3793103448274" height="30" as="alternateBounds" />
          </mxGeometry>
        </mxCell>
        <mxCell id="nWNgb4miwz-LYuUAV93a-63" value="동물" style="shape=table;startSize=30;container=1;collapsible=1;childLayout=tableLayout;fixedRows=1;rowLines=0;fontStyle=1;align=center;resizeLast=1;html=1;fillColor=#dae8fc;strokeColor=#6c8ebf;gradientColor=#7ea6e0;" parent="1" vertex="1">
          <mxGeometry x="32" y="852" width="190" height="190" as="geometry" />
        </mxCell>
        <mxCell id="nWNgb4miwz-LYuUAV93a-64" value="" style="shape=tableRow;horizontal=0;startSize=0;swimlaneHead=0;swimlaneBody=0;fillColor=none;collapsible=0;dropTarget=0;points=[[0,0.5],[1,0.5]];portConstraint=eastwest;top=0;left=0;right=0;bottom=1;" parent="nWNgb4miwz-LYuUAV93a-63" vertex="1">
          <mxGeometry y="30" width="190" height="30" as="geometry" />
        </mxCell>
        <mxCell id="nWNgb4miwz-LYuUAV93a-65" value="기본키" style="shape=partialRectangle;connectable=0;fillColor=none;top=0;left=0;bottom=0;right=0;fontStyle=1;overflow=hidden;whiteSpace=wrap;html=1;" parent="nWNgb4miwz-LYuUAV93a-64" vertex="1">
          <mxGeometry width="46.24137931034471" height="30" as="geometry">
            <mxRectangle width="46.24137931034471" height="30" as="alternateBounds" />
          </mxGeometry>
        </mxCell>
        <mxCell id="nWNgb4miwz-LYuUAV93a-66" value="AnimalID" style="shape=partialRectangle;connectable=0;fillColor=none;top=0;left=0;bottom=0;right=0;align=left;spacingLeft=6;fontStyle=5;overflow=hidden;whiteSpace=wrap;html=1;" parent="nWNgb4miwz-LYuUAV93a-64" vertex="1">
          <mxGeometry x="46.24137931034471" width="143.7586206896553" height="30" as="geometry">
            <mxRectangle width="143.7586206896553" height="30" as="alternateBounds" />
          </mxGeometry>
        </mxCell>
        <mxCell id="nWNgb4miwz-LYuUAV93a-67" value="" style="shape=tableRow;horizontal=0;startSize=0;swimlaneHead=0;swimlaneBody=0;fillColor=none;collapsible=0;dropTarget=0;points=[[0,0.5],[1,0.5]];portConstraint=eastwest;top=0;left=0;right=0;bottom=0;" parent="nWNgb4miwz-LYuUAV93a-63" vertex="1">
          <mxGeometry y="60" width="190" height="30" as="geometry" />
        </mxCell>
        <mxCell id="nWNgb4miwz-LYuUAV93a-68" value="" style="shape=partialRectangle;connectable=0;fillColor=none;top=0;left=0;bottom=0;right=0;editable=1;overflow=hidden;whiteSpace=wrap;html=1;" parent="nWNgb4miwz-LYuUAV93a-67" vertex="1">
          <mxGeometry width="46.24137931034471" height="30" as="geometry">
            <mxRectangle width="46.24137931034471" height="30" as="alternateBounds" />
          </mxGeometry>
        </mxCell>
        <mxCell id="nWNgb4miwz-LYuUAV93a-69" value="이름" style="shape=partialRectangle;connectable=0;fillColor=none;top=0;left=0;bottom=0;right=0;align=left;spacingLeft=6;overflow=hidden;whiteSpace=wrap;html=1;" parent="nWNgb4miwz-LYuUAV93a-67" vertex="1">
          <mxGeometry x="46.24137931034471" width="143.7586206896553" height="30" as="geometry">
            <mxRectangle width="143.7586206896553" height="30" as="alternateBounds" />
          </mxGeometry>
        </mxCell>
        <mxCell id="g-p62DBfAtP53sRGqjuf-96" value="" style="shape=tableRow;horizontal=0;startSize=0;swimlaneHead=0;swimlaneBody=0;fillColor=none;collapsible=0;dropTarget=0;points=[[0,0.5],[1,0.5]];portConstraint=eastwest;top=0;left=0;right=0;bottom=0;" vertex="1" parent="nWNgb4miwz-LYuUAV93a-63">
          <mxGeometry y="90" width="190" height="30" as="geometry" />
        </mxCell>
        <mxCell id="g-p62DBfAtP53sRGqjuf-97" value="" style="shape=partialRectangle;connectable=0;fillColor=none;top=0;left=0;bottom=0;right=0;editable=1;overflow=hidden;whiteSpace=wrap;html=1;" vertex="1" parent="g-p62DBfAtP53sRGqjuf-96">
          <mxGeometry width="46.24137931034471" height="30" as="geometry">
            <mxRectangle width="46.24137931034471" height="30" as="alternateBounds" />
          </mxGeometry>
        </mxCell>
        <mxCell id="g-p62DBfAtP53sRGqjuf-98" value="종족" style="shape=partialRectangle;connectable=0;fillColor=none;top=0;left=0;bottom=0;right=0;align=left;spacingLeft=6;overflow=hidden;whiteSpace=wrap;html=1;" vertex="1" parent="g-p62DBfAtP53sRGqjuf-96">
          <mxGeometry x="46.24137931034471" width="143.7586206896553" height="30" as="geometry">
            <mxRectangle width="143.7586206896553" height="30" as="alternateBounds" />
          </mxGeometry>
        </mxCell>
        <mxCell id="nWNgb4miwz-LYuUAV93a-70" value="" style="shape=tableRow;horizontal=0;startSize=0;swimlaneHead=0;swimlaneBody=0;fillColor=none;collapsible=0;dropTarget=0;points=[[0,0.5],[1,0.5]];portConstraint=eastwest;top=0;left=0;right=0;bottom=0;" parent="nWNgb4miwz-LYuUAV93a-63" vertex="1">
          <mxGeometry y="120" width="190" height="30" as="geometry" />
        </mxCell>
        <mxCell id="nWNgb4miwz-LYuUAV93a-71" value="" style="shape=partialRectangle;connectable=0;fillColor=none;top=0;left=0;bottom=0;right=0;editable=1;overflow=hidden;whiteSpace=wrap;html=1;" parent="nWNgb4miwz-LYuUAV93a-70" vertex="1">
          <mxGeometry width="46.24137931034471" height="30" as="geometry">
            <mxRectangle width="46.24137931034471" height="30" as="alternateBounds" />
          </mxGeometry>
        </mxCell>
        <mxCell id="nWNgb4miwz-LYuUAV93a-72" value="나이" style="shape=partialRectangle;connectable=0;fillColor=none;top=0;left=0;bottom=0;right=0;align=left;spacingLeft=6;overflow=hidden;whiteSpace=wrap;html=1;" parent="nWNgb4miwz-LYuUAV93a-70" vertex="1">
          <mxGeometry x="46.24137931034471" width="143.7586206896553" height="30" as="geometry">
            <mxRectangle width="143.7586206896553" height="30" as="alternateBounds" />
          </mxGeometry>
        </mxCell>
        <mxCell id="nWNgb4miwz-LYuUAV93a-73" value="" style="shape=tableRow;horizontal=0;startSize=0;swimlaneHead=0;swimlaneBody=0;fillColor=none;collapsible=0;dropTarget=0;points=[[0,0.5],[1,0.5]];portConstraint=eastwest;top=0;left=0;right=0;bottom=0;" parent="nWNgb4miwz-LYuUAV93a-63" vertex="1">
          <mxGeometry y="150" width="190" height="30" as="geometry" />
        </mxCell>
        <mxCell id="nWNgb4miwz-LYuUAV93a-74" value="" style="shape=partialRectangle;connectable=0;fillColor=none;top=0;left=0;bottom=0;right=0;editable=1;overflow=hidden;whiteSpace=wrap;html=1;" parent="nWNgb4miwz-LYuUAV93a-73" vertex="1">
          <mxGeometry width="46.24137931034471" height="30" as="geometry">
            <mxRectangle width="46.24137931034471" height="30" as="alternateBounds" />
          </mxGeometry>
        </mxCell>
        <mxCell id="nWNgb4miwz-LYuUAV93a-75" value="성별" style="shape=partialRectangle;connectable=0;fillColor=none;top=0;left=0;bottom=0;right=0;align=left;spacingLeft=6;overflow=hidden;whiteSpace=wrap;html=1;" parent="nWNgb4miwz-LYuUAV93a-73" vertex="1">
          <mxGeometry x="46.24137931034471" width="143.7586206896553" height="30" as="geometry">
            <mxRectangle width="143.7586206896553" height="30" as="alternateBounds" />
          </mxGeometry>
        </mxCell>
        <mxCell id="nWNgb4miwz-LYuUAV93a-100" style="edgeStyle=orthogonalEdgeStyle;rounded=0;orthogonalLoop=1;jettySize=auto;html=1;entryX=1;entryY=0.5;entryDx=0;entryDy=0;spacingTop=0;strokeWidth=3;fillColor=#dae8fc;gradientColor=#7ea6e0;strokeColor=#6c8ebf;" parent="1" source="nWNgb4miwz-LYuUAV93a-85" target="nWNgb4miwz-LYuUAV93a-2" edge="1">
          <mxGeometry relative="1" as="geometry">
            <Array as="points">
              <mxPoint x="553" y="126" />
              <mxPoint x="553" y="96" />
            </Array>
          </mxGeometry>
        </mxCell>
        <mxCell id="nWNgb4miwz-LYuUAV93a-85" value="정착민의 기술" style="shape=table;startSize=30;container=1;collapsible=1;childLayout=tableLayout;fixedRows=1;rowLines=0;fontStyle=1;align=center;resizeLast=1;html=1;whiteSpace=wrap;fillColor=#dae8fc;gradientColor=#7ea6e0;strokeColor=#6c8ebf;" parent="1" vertex="1">
          <mxGeometry x="591" y="44" width="180" height="150" as="geometry" />
        </mxCell>
        <mxCell id="nWNgb4miwz-LYuUAV93a-86" value="" style="shape=tableRow;horizontal=0;startSize=0;swimlaneHead=0;swimlaneBody=0;fillColor=none;collapsible=0;dropTarget=0;points=[[0,0.5],[1,0.5]];portConstraint=eastwest;top=0;left=0;right=0;bottom=0;html=1;" parent="nWNgb4miwz-LYuUAV93a-85" vertex="1">
          <mxGeometry y="30" width="180" height="30" as="geometry" />
        </mxCell>
        <mxCell id="nWNgb4miwz-LYuUAV93a-87" value="기본키" style="shape=partialRectangle;connectable=0;fillColor=none;top=0;left=0;bottom=0;right=0;fontStyle=1;overflow=hidden;html=1;whiteSpace=wrap;" parent="nWNgb4miwz-LYuUAV93a-86" vertex="1">
          <mxGeometry width="60" height="30" as="geometry">
            <mxRectangle width="60" height="30" as="alternateBounds" />
          </mxGeometry>
        </mxCell>
        <mxCell id="nWNgb4miwz-LYuUAV93a-88" value="SkillID" style="shape=partialRectangle;connectable=0;fillColor=none;top=0;left=0;bottom=0;right=0;align=left;spacingLeft=6;fontStyle=5;overflow=hidden;html=1;whiteSpace=wrap;" parent="nWNgb4miwz-LYuUAV93a-86" vertex="1">
          <mxGeometry x="60" width="120" height="30" as="geometry">
            <mxRectangle width="120" height="30" as="alternateBounds" />
          </mxGeometry>
        </mxCell>
        <mxCell id="nWNgb4miwz-LYuUAV93a-89" value="" style="shape=tableRow;horizontal=0;startSize=0;swimlaneHead=0;swimlaneBody=0;fillColor=none;collapsible=0;dropTarget=0;points=[[0,0.5],[1,0.5]];portConstraint=eastwest;top=0;left=0;right=0;bottom=1;html=1;" parent="nWNgb4miwz-LYuUAV93a-85" vertex="1">
          <mxGeometry y="60" width="180" height="30" as="geometry" />
        </mxCell>
        <mxCell id="nWNgb4miwz-LYuUAV93a-90" value="외래키" style="shape=partialRectangle;connectable=0;fillColor=none;top=0;left=0;bottom=0;right=0;fontStyle=1;overflow=hidden;html=1;whiteSpace=wrap;" parent="nWNgb4miwz-LYuUAV93a-89" vertex="1">
          <mxGeometry width="60" height="30" as="geometry">
            <mxRectangle width="60" height="30" as="alternateBounds" />
          </mxGeometry>
        </mxCell>
        <mxCell id="nWNgb4miwz-LYuUAV93a-91" value="&lt;u&gt;ColonistID&lt;/u&gt;" style="shape=partialRectangle;connectable=0;fillColor=none;top=0;left=0;bottom=0;right=0;align=left;spacingLeft=6;fontStyle=1;overflow=hidden;html=1;whiteSpace=wrap;" parent="nWNgb4miwz-LYuUAV93a-89" vertex="1">
          <mxGeometry x="60" width="120" height="30" as="geometry">
            <mxRectangle width="120" height="30" as="alternateBounds" />
          </mxGeometry>
        </mxCell>
        <mxCell id="nWNgb4miwz-LYuUAV93a-92" value="" style="shape=tableRow;horizontal=0;startSize=0;swimlaneHead=0;swimlaneBody=0;fillColor=none;collapsible=0;dropTarget=0;points=[[0,0.5],[1,0.5]];portConstraint=eastwest;top=0;left=0;right=0;bottom=0;html=1;" parent="nWNgb4miwz-LYuUAV93a-85" vertex="1">
          <mxGeometry y="90" width="180" height="30" as="geometry" />
        </mxCell>
        <mxCell id="nWNgb4miwz-LYuUAV93a-93" value="" style="shape=partialRectangle;connectable=0;fillColor=none;top=0;left=0;bottom=0;right=0;editable=1;overflow=hidden;html=1;whiteSpace=wrap;" parent="nWNgb4miwz-LYuUAV93a-92" vertex="1">
          <mxGeometry width="60" height="30" as="geometry">
            <mxRectangle width="60" height="30" as="alternateBounds" />
          </mxGeometry>
        </mxCell>
        <mxCell id="nWNgb4miwz-LYuUAV93a-94" value="이름" style="shape=partialRectangle;connectable=0;fillColor=none;top=0;left=0;bottom=0;right=0;align=left;spacingLeft=6;overflow=hidden;html=1;whiteSpace=wrap;" parent="nWNgb4miwz-LYuUAV93a-92" vertex="1">
          <mxGeometry x="60" width="120" height="30" as="geometry">
            <mxRectangle width="120" height="30" as="alternateBounds" />
          </mxGeometry>
        </mxCell>
        <mxCell id="nWNgb4miwz-LYuUAV93a-95" value="" style="shape=tableRow;horizontal=0;startSize=0;swimlaneHead=0;swimlaneBody=0;fillColor=none;collapsible=0;dropTarget=0;points=[[0,0.5],[1,0.5]];portConstraint=eastwest;top=0;left=0;right=0;bottom=0;html=1;" parent="nWNgb4miwz-LYuUAV93a-85" vertex="1">
          <mxGeometry y="120" width="180" height="30" as="geometry" />
        </mxCell>
        <mxCell id="nWNgb4miwz-LYuUAV93a-96" value="" style="shape=partialRectangle;connectable=0;fillColor=none;top=0;left=0;bottom=0;right=0;editable=1;overflow=hidden;html=1;whiteSpace=wrap;" parent="nWNgb4miwz-LYuUAV93a-95" vertex="1">
          <mxGeometry width="60" height="30" as="geometry">
            <mxRectangle width="60" height="30" as="alternateBounds" />
          </mxGeometry>
        </mxCell>
        <mxCell id="nWNgb4miwz-LYuUAV93a-97" value="기술 레벨" style="shape=partialRectangle;connectable=0;fillColor=none;top=0;left=0;bottom=0;right=0;align=left;spacingLeft=6;overflow=hidden;html=1;whiteSpace=wrap;" parent="nWNgb4miwz-LYuUAV93a-95" vertex="1">
          <mxGeometry x="60" width="120" height="30" as="geometry">
            <mxRectangle width="120" height="30" as="alternateBounds" />
          </mxGeometry>
        </mxCell>
        <mxCell id="nWNgb4miwz-LYuUAV93a-104" value="정착민의 성격" style="shape=table;startSize=30;container=1;collapsible=1;childLayout=tableLayout;fixedRows=1;rowLines=0;fontStyle=1;align=center;resizeLast=1;html=1;whiteSpace=wrap;fillColor=#dae8fc;gradientColor=#7ea6e0;strokeColor=#6c8ebf;" parent="1" vertex="1">
          <mxGeometry x="591" y="207" width="180" height="180" as="geometry" />
        </mxCell>
        <mxCell id="nWNgb4miwz-LYuUAV93a-105" value="" style="shape=tableRow;horizontal=0;startSize=0;swimlaneHead=0;swimlaneBody=0;fillColor=none;collapsible=0;dropTarget=0;points=[[0,0.5],[1,0.5]];portConstraint=eastwest;top=0;left=0;right=0;bottom=0;html=1;" parent="nWNgb4miwz-LYuUAV93a-104" vertex="1">
          <mxGeometry y="30" width="180" height="30" as="geometry" />
        </mxCell>
        <mxCell id="nWNgb4miwz-LYuUAV93a-106" value="기본키" style="shape=partialRectangle;connectable=0;fillColor=none;top=0;left=0;bottom=0;right=0;fontStyle=1;overflow=hidden;html=1;whiteSpace=wrap;" parent="nWNgb4miwz-LYuUAV93a-105" vertex="1">
          <mxGeometry width="60" height="30" as="geometry">
            <mxRectangle width="60" height="30" as="alternateBounds" />
          </mxGeometry>
        </mxCell>
        <mxCell id="nWNgb4miwz-LYuUAV93a-107" value="PersonailityID" style="shape=partialRectangle;connectable=0;fillColor=none;top=0;left=0;bottom=0;right=0;align=left;spacingLeft=6;fontStyle=5;overflow=hidden;html=1;whiteSpace=wrap;" parent="nWNgb4miwz-LYuUAV93a-105" vertex="1">
          <mxGeometry x="60" width="120" height="30" as="geometry">
            <mxRectangle width="120" height="30" as="alternateBounds" />
          </mxGeometry>
        </mxCell>
        <mxCell id="nWNgb4miwz-LYuUAV93a-108" value="" style="shape=tableRow;horizontal=0;startSize=0;swimlaneHead=0;swimlaneBody=0;fillColor=none;collapsible=0;dropTarget=0;points=[[0,0.5],[1,0.5]];portConstraint=eastwest;top=0;left=0;right=0;bottom=1;html=1;" parent="nWNgb4miwz-LYuUAV93a-104" vertex="1">
          <mxGeometry y="60" width="180" height="30" as="geometry" />
        </mxCell>
        <mxCell id="nWNgb4miwz-LYuUAV93a-109" value="외래키" style="shape=partialRectangle;connectable=0;fillColor=none;top=0;left=0;bottom=0;right=0;fontStyle=1;overflow=hidden;html=1;whiteSpace=wrap;" parent="nWNgb4miwz-LYuUAV93a-108" vertex="1">
          <mxGeometry width="60" height="30" as="geometry">
            <mxRectangle width="60" height="30" as="alternateBounds" />
          </mxGeometry>
        </mxCell>
        <mxCell id="nWNgb4miwz-LYuUAV93a-110" value="&lt;u&gt;ColonistID&lt;/u&gt;" style="shape=partialRectangle;connectable=0;fillColor=none;top=0;left=0;bottom=0;right=0;align=left;spacingLeft=6;fontStyle=1;overflow=hidden;html=1;whiteSpace=wrap;" parent="nWNgb4miwz-LYuUAV93a-108" vertex="1">
          <mxGeometry x="60" width="120" height="30" as="geometry">
            <mxRectangle width="120" height="30" as="alternateBounds" />
          </mxGeometry>
        </mxCell>
        <mxCell id="nWNgb4miwz-LYuUAV93a-111" value="" style="shape=tableRow;horizontal=0;startSize=0;swimlaneHead=0;swimlaneBody=0;fillColor=none;collapsible=0;dropTarget=0;points=[[0,0.5],[1,0.5]];portConstraint=eastwest;top=0;left=0;right=0;bottom=0;html=1;" parent="nWNgb4miwz-LYuUAV93a-104" vertex="1">
          <mxGeometry y="90" width="180" height="30" as="geometry" />
        </mxCell>
        <mxCell id="nWNgb4miwz-LYuUAV93a-112" value="" style="shape=partialRectangle;connectable=0;fillColor=none;top=0;left=0;bottom=0;right=0;editable=1;overflow=hidden;html=1;whiteSpace=wrap;" parent="nWNgb4miwz-LYuUAV93a-111" vertex="1">
          <mxGeometry width="60" height="30" as="geometry">
            <mxRectangle width="60" height="30" as="alternateBounds" />
          </mxGeometry>
        </mxCell>
        <mxCell id="nWNgb4miwz-LYuUAV93a-113" value="이름" style="shape=partialRectangle;connectable=0;fillColor=none;top=0;left=0;bottom=0;right=0;align=left;spacingLeft=6;overflow=hidden;html=1;whiteSpace=wrap;" parent="nWNgb4miwz-LYuUAV93a-111" vertex="1">
          <mxGeometry x="60" width="120" height="30" as="geometry">
            <mxRectangle width="120" height="30" as="alternateBounds" />
          </mxGeometry>
        </mxCell>
        <mxCell id="nWNgb4miwz-LYuUAV93a-121" value="" style="shape=tableRow;horizontal=0;startSize=0;swimlaneHead=0;swimlaneBody=0;fillColor=none;collapsible=0;dropTarget=0;points=[[0,0.5],[1,0.5]];portConstraint=eastwest;top=0;left=0;right=0;bottom=0;html=1;" parent="nWNgb4miwz-LYuUAV93a-104" vertex="1">
          <mxGeometry y="120" width="180" height="30" as="geometry" />
        </mxCell>
        <mxCell id="nWNgb4miwz-LYuUAV93a-122" value="" style="shape=partialRectangle;connectable=0;fillColor=none;top=0;left=0;bottom=0;right=0;editable=1;overflow=hidden;html=1;whiteSpace=wrap;" parent="nWNgb4miwz-LYuUAV93a-121" vertex="1">
          <mxGeometry width="60" height="30" as="geometry">
            <mxRectangle width="60" height="30" as="alternateBounds" />
          </mxGeometry>
        </mxCell>
        <mxCell id="nWNgb4miwz-LYuUAV93a-123" value="설명" style="shape=partialRectangle;connectable=0;fillColor=none;top=0;left=0;bottom=0;right=0;align=left;spacingLeft=6;overflow=hidden;html=1;whiteSpace=wrap;" parent="nWNgb4miwz-LYuUAV93a-121" vertex="1">
          <mxGeometry x="60" width="120" height="30" as="geometry">
            <mxRectangle width="120" height="30" as="alternateBounds" />
          </mxGeometry>
        </mxCell>
        <mxCell id="nWNgb4miwz-LYuUAV93a-114" value="" style="shape=tableRow;horizontal=0;startSize=0;swimlaneHead=0;swimlaneBody=0;fillColor=none;collapsible=0;dropTarget=0;points=[[0,0.5],[1,0.5]];portConstraint=eastwest;top=0;left=0;right=0;bottom=0;html=1;" parent="nWNgb4miwz-LYuUAV93a-104" vertex="1">
          <mxGeometry y="150" width="180" height="30" as="geometry" />
        </mxCell>
        <mxCell id="nWNgb4miwz-LYuUAV93a-115" value="" style="shape=partialRectangle;connectable=0;fillColor=none;top=0;left=0;bottom=0;right=0;editable=1;overflow=hidden;html=1;whiteSpace=wrap;" parent="nWNgb4miwz-LYuUAV93a-114" vertex="1">
          <mxGeometry width="60" height="30" as="geometry">
            <mxRectangle width="60" height="30" as="alternateBounds" />
          </mxGeometry>
        </mxCell>
        <mxCell id="nWNgb4miwz-LYuUAV93a-116" value="효과" style="shape=partialRectangle;connectable=0;fillColor=none;top=0;left=0;bottom=0;right=0;align=left;spacingLeft=6;overflow=hidden;html=1;whiteSpace=wrap;" parent="nWNgb4miwz-LYuUAV93a-114" vertex="1">
          <mxGeometry x="60" width="120" height="30" as="geometry">
            <mxRectangle width="120" height="30" as="alternateBounds" />
          </mxGeometry>
        </mxCell>
        <mxCell id="nWNgb4miwz-LYuUAV93a-117" style="edgeStyle=orthogonalEdgeStyle;rounded=0;orthogonalLoop=1;jettySize=auto;html=1;entryX=0.994;entryY=0.806;entryDx=0;entryDy=0;entryPerimeter=0;exitX=0;exitY=0.5;exitDx=0;exitDy=0;spacingTop=0;strokeWidth=3;fillColor=#d5e8d4;gradientColor=#97d077;strokeColor=#82b366;" parent="1" source="nWNgb4miwz-LYuUAV93a-108" target="nWNgb4miwz-LYuUAV93a-2" edge="1">
          <mxGeometry relative="1" as="geometry">
            <Array as="points">
              <mxPoint x="591" y="289" />
              <mxPoint x="526" y="289" />
              <mxPoint x="526" y="105" />
            </Array>
          </mxGeometry>
        </mxCell>
        <mxCell id="nWNgb4miwz-LYuUAV93a-146" value="건설/이용중인 정착민" style="shape=table;startSize=30;container=1;collapsible=1;childLayout=tableLayout;fixedRows=1;rowLines=0;fontStyle=1;align=center;resizeLast=1;html=1;whiteSpace=wrap;fillColor=#dae8fc;gradientColor=#7ea6e0;strokeColor=#6c8ebf;" parent="1" vertex="1">
          <mxGeometry x="591" y="410" width="180" height="84" as="geometry" />
        </mxCell>
        <mxCell id="nWNgb4miwz-LYuUAV93a-147" value="" style="shape=tableRow;horizontal=0;startSize=0;swimlaneHead=0;swimlaneBody=0;fillColor=none;collapsible=0;dropTarget=0;points=[[0,0.5],[1,0.5]];portConstraint=eastwest;top=0;left=0;right=0;bottom=0;html=1;" parent="nWNgb4miwz-LYuUAV93a-146" vertex="1">
          <mxGeometry y="30" width="180" height="24" as="geometry" />
        </mxCell>
        <mxCell id="nWNgb4miwz-LYuUAV93a-148" value="외래키" style="shape=partialRectangle;connectable=0;fillColor=none;top=0;left=0;bottom=0;right=0;fontStyle=1;overflow=hidden;html=1;whiteSpace=wrap;" parent="nWNgb4miwz-LYuUAV93a-147" vertex="1">
          <mxGeometry width="60" height="24" as="geometry">
            <mxRectangle width="60" height="24" as="alternateBounds" />
          </mxGeometry>
        </mxCell>
        <mxCell id="nWNgb4miwz-LYuUAV93a-149" value="&lt;u&gt;BuildingID&lt;/u&gt;" style="shape=partialRectangle;connectable=0;fillColor=none;top=0;left=0;bottom=0;right=0;align=left;spacingLeft=6;fontStyle=1;overflow=hidden;html=1;whiteSpace=wrap;" parent="nWNgb4miwz-LYuUAV93a-147" vertex="1">
          <mxGeometry x="60" width="120" height="24" as="geometry">
            <mxRectangle width="120" height="24" as="alternateBounds" />
          </mxGeometry>
        </mxCell>
        <mxCell id="nWNgb4miwz-LYuUAV93a-150" value="" style="shape=tableRow;horizontal=0;startSize=0;swimlaneHead=0;swimlaneBody=0;fillColor=none;collapsible=0;dropTarget=0;points=[[0,0.5],[1,0.5]];portConstraint=eastwest;top=0;left=0;right=0;bottom=1;html=1;" parent="nWNgb4miwz-LYuUAV93a-146" vertex="1">
          <mxGeometry y="54" width="180" height="30" as="geometry" />
        </mxCell>
        <mxCell id="nWNgb4miwz-LYuUAV93a-151" value="외래키" style="shape=partialRectangle;connectable=0;fillColor=none;top=0;left=0;bottom=0;right=0;fontStyle=1;overflow=hidden;html=1;whiteSpace=wrap;" parent="nWNgb4miwz-LYuUAV93a-150" vertex="1">
          <mxGeometry width="60" height="30" as="geometry">
            <mxRectangle width="60" height="30" as="alternateBounds" />
          </mxGeometry>
        </mxCell>
        <mxCell id="nWNgb4miwz-LYuUAV93a-152" value="ColonistID" style="shape=partialRectangle;connectable=0;fillColor=none;top=0;left=0;bottom=0;right=0;align=left;spacingLeft=6;fontStyle=5;overflow=hidden;html=1;whiteSpace=wrap;" parent="nWNgb4miwz-LYuUAV93a-150" vertex="1">
          <mxGeometry x="60" width="120" height="30" as="geometry">
            <mxRectangle width="120" height="30" as="alternateBounds" />
          </mxGeometry>
        </mxCell>
        <mxCell id="nWNgb4miwz-LYuUAV93a-160" style="edgeStyle=orthogonalEdgeStyle;rounded=0;orthogonalLoop=1;jettySize=auto;html=1;entryX=0.998;entryY=0.731;entryDx=0;entryDy=0;entryPerimeter=0;spacingTop=0;strokeWidth=3;fillColor=#f8cecc;gradientColor=#ea6b66;strokeColor=#b85450;" parent="1" source="nWNgb4miwz-LYuUAV93a-147" target="nWNgb4miwz-LYuUAV93a-19" edge="1">
          <mxGeometry relative="1" as="geometry" />
        </mxCell>
        <mxCell id="nWNgb4miwz-LYuUAV93a-161" style="edgeStyle=orthogonalEdgeStyle;rounded=0;orthogonalLoop=1;jettySize=auto;html=1;entryX=1.007;entryY=0.722;entryDx=0;entryDy=0;entryPerimeter=0;spacingTop=0;strokeWidth=3;fillColor=#f8cecc;gradientColor=#ea6b66;strokeColor=#b85450;" parent="1" source="nWNgb4miwz-LYuUAV93a-150" target="nWNgb4miwz-LYuUAV93a-2" edge="1">
          <mxGeometry relative="1" as="geometry">
            <Array as="points">
              <mxPoint x="466" y="492" />
              <mxPoint x="466" y="103" />
            </Array>
          </mxGeometry>
        </mxCell>
        <mxCell id="nWNgb4miwz-LYuUAV93a-176" value="생명체에게 미치는 이벤트의 영향" style="shape=table;startSize=30;container=1;collapsible=1;childLayout=tableLayout;fixedRows=1;rowLines=0;fontStyle=1;align=center;resizeLast=1;html=1;whiteSpace=wrap;fillColor=#dae8fc;gradientColor=#7ea6e0;strokeColor=#6c8ebf;" parent="1" vertex="1">
          <mxGeometry x="591" y="521" width="180" height="120" as="geometry" />
        </mxCell>
        <mxCell id="nWNgb4miwz-LYuUAV93a-205" value="" style="shape=tableRow;horizontal=0;startSize=0;swimlaneHead=0;swimlaneBody=0;fillColor=none;collapsible=0;dropTarget=0;points=[[0,0.5],[1,0.5]];portConstraint=eastwest;top=0;left=0;right=0;bottom=0;html=1;" parent="nWNgb4miwz-LYuUAV93a-176" vertex="1">
          <mxGeometry y="30" width="180" height="30" as="geometry" />
        </mxCell>
        <mxCell id="nWNgb4miwz-LYuUAV93a-206" value="외래키" style="shape=partialRectangle;connectable=0;fillColor=none;top=0;left=0;bottom=0;right=0;fontStyle=1;overflow=hidden;html=1;whiteSpace=wrap;" parent="nWNgb4miwz-LYuUAV93a-205" vertex="1">
          <mxGeometry width="59.89581072771966" height="30" as="geometry">
            <mxRectangle width="59.89581072771966" height="30" as="alternateBounds" />
          </mxGeometry>
        </mxCell>
        <mxCell id="nWNgb4miwz-LYuUAV93a-207" value="ColonistID" style="shape=partialRectangle;connectable=0;fillColor=none;top=0;left=0;bottom=0;right=0;align=left;spacingLeft=6;fontStyle=5;overflow=hidden;html=1;whiteSpace=wrap;" parent="nWNgb4miwz-LYuUAV93a-205" vertex="1">
          <mxGeometry x="59.89581072771966" width="120.10418927228034" height="30" as="geometry">
            <mxRectangle width="120.10418927228034" height="30" as="alternateBounds" />
          </mxGeometry>
        </mxCell>
        <mxCell id="nWNgb4miwz-LYuUAV93a-180" value="" style="shape=tableRow;horizontal=0;startSize=0;swimlaneHead=0;swimlaneBody=0;fillColor=none;collapsible=0;dropTarget=0;points=[[0,0.5],[1,0.5]];portConstraint=eastwest;top=0;left=0;right=0;bottom=1;html=1;" parent="nWNgb4miwz-LYuUAV93a-176" vertex="1">
          <mxGeometry y="60" width="180" height="30" as="geometry" />
        </mxCell>
        <mxCell id="nWNgb4miwz-LYuUAV93a-181" value="외래키" style="shape=partialRectangle;connectable=0;fillColor=none;top=0;left=0;bottom=0;right=0;fontStyle=1;overflow=hidden;html=1;whiteSpace=wrap;" parent="nWNgb4miwz-LYuUAV93a-180" vertex="1">
          <mxGeometry width="59.89581072771966" height="30" as="geometry">
            <mxRectangle width="59.89581072771966" height="30" as="alternateBounds" />
          </mxGeometry>
        </mxCell>
        <mxCell id="nWNgb4miwz-LYuUAV93a-182" value="&lt;u&gt;EventID&lt;/u&gt;" style="shape=partialRectangle;connectable=0;fillColor=none;top=0;left=0;bottom=0;right=0;align=left;spacingLeft=6;fontStyle=1;overflow=hidden;html=1;whiteSpace=wrap;" parent="nWNgb4miwz-LYuUAV93a-180" vertex="1">
          <mxGeometry x="59.89581072771966" width="120.10418927228034" height="30" as="geometry">
            <mxRectangle width="120.10418927228034" height="30" as="alternateBounds" />
          </mxGeometry>
        </mxCell>
        <mxCell id="nWNgb4miwz-LYuUAV93a-183" value="" style="shape=tableRow;horizontal=0;startSize=0;swimlaneHead=0;swimlaneBody=0;fillColor=none;collapsible=0;dropTarget=0;points=[[0,0.5],[1,0.5]];portConstraint=eastwest;top=0;left=0;right=0;bottom=0;html=1;" parent="nWNgb4miwz-LYuUAV93a-176" vertex="1">
          <mxGeometry y="90" width="180" height="30" as="geometry" />
        </mxCell>
        <mxCell id="nWNgb4miwz-LYuUAV93a-184" value="" style="shape=partialRectangle;connectable=0;fillColor=none;top=0;left=0;bottom=0;right=0;editable=1;overflow=hidden;html=1;whiteSpace=wrap;" parent="nWNgb4miwz-LYuUAV93a-183" vertex="1">
          <mxGeometry width="59.89581072771966" height="30" as="geometry">
            <mxRectangle width="59.89581072771966" height="30" as="alternateBounds" />
          </mxGeometry>
        </mxCell>
        <mxCell id="nWNgb4miwz-LYuUAV93a-185" value="영향" style="shape=partialRectangle;connectable=0;fillColor=none;top=0;left=0;bottom=0;right=0;align=left;spacingLeft=6;overflow=hidden;html=1;whiteSpace=wrap;" parent="nWNgb4miwz-LYuUAV93a-183" vertex="1">
          <mxGeometry x="59.89581072771966" width="120.10418927228034" height="30" as="geometry">
            <mxRectangle width="120.10418927228034" height="30" as="alternateBounds" />
          </mxGeometry>
        </mxCell>
        <mxCell id="nWNgb4miwz-LYuUAV93a-208" style="edgeStyle=orthogonalEdgeStyle;rounded=0;orthogonalLoop=1;jettySize=auto;html=1;strokeWidth=3;fillColor=#ffe6cc;strokeColor=#d79b00;exitX=0;exitY=0.5;exitDx=0;exitDy=0;" parent="1" source="nWNgb4miwz-LYuUAV93a-205" target="nWNgb4miwz-LYuUAV93a-2" edge="1">
          <mxGeometry relative="1" as="geometry">
            <Array as="points">
              <mxPoint x="349" y="566" />
              <mxPoint x="349" y="96" />
            </Array>
          </mxGeometry>
        </mxCell>
        <mxCell id="nWNgb4miwz-LYuUAV93a-209" style="edgeStyle=orthogonalEdgeStyle;rounded=0;orthogonalLoop=1;jettySize=auto;html=1;strokeWidth=3;fillColor=#ffe6cc;strokeColor=#d79b00;exitX=-0.007;exitY=0.84;exitDx=0;exitDy=0;exitPerimeter=0;" parent="1" source="nWNgb4miwz-LYuUAV93a-180" target="nWNgb4miwz-LYuUAV93a-48" edge="1">
          <mxGeometry relative="1" as="geometry">
            <Array as="points">
              <mxPoint x="590" y="598" />
              <mxPoint x="424" y="598" />
              <mxPoint x="424" y="747" />
            </Array>
          </mxGeometry>
        </mxCell>
        <mxCell id="nWNgb4miwz-LYuUAV93a-210" value="건물이 보관중인 아이템" style="shape=table;startSize=30;container=1;collapsible=1;childLayout=tableLayout;fixedRows=1;rowLines=0;fontStyle=1;align=center;resizeLast=1;html=1;whiteSpace=wrap;fillColor=#dae8fc;gradientColor=#7ea6e0;strokeColor=#6c8ebf;" parent="1" vertex="1">
          <mxGeometry x="-306" y="435" width="180" height="90" as="geometry" />
        </mxCell>
        <mxCell id="nWNgb4miwz-LYuUAV93a-211" value="" style="shape=tableRow;horizontal=0;startSize=0;swimlaneHead=0;swimlaneBody=0;fillColor=none;collapsible=0;dropTarget=0;points=[[0,0.5],[1,0.5]];portConstraint=eastwest;top=0;left=0;right=0;bottom=0;html=1;" parent="nWNgb4miwz-LYuUAV93a-210" vertex="1">
          <mxGeometry y="30" width="180" height="30" as="geometry" />
        </mxCell>
        <mxCell id="nWNgb4miwz-LYuUAV93a-212" value="외래키" style="shape=partialRectangle;connectable=0;fillColor=none;top=0;left=0;bottom=0;right=0;fontStyle=1;overflow=hidden;html=1;whiteSpace=wrap;" parent="nWNgb4miwz-LYuUAV93a-211" vertex="1">
          <mxGeometry width="60" height="30" as="geometry">
            <mxRectangle width="60" height="30" as="alternateBounds" />
          </mxGeometry>
        </mxCell>
        <mxCell id="nWNgb4miwz-LYuUAV93a-213" value="BuildingID" style="shape=partialRectangle;connectable=0;fillColor=none;top=0;left=0;bottom=0;right=0;align=left;spacingLeft=6;fontStyle=1;overflow=hidden;html=1;whiteSpace=wrap;" parent="nWNgb4miwz-LYuUAV93a-211" vertex="1">
          <mxGeometry x="60" width="120" height="30" as="geometry">
            <mxRectangle width="120" height="30" as="alternateBounds" />
          </mxGeometry>
        </mxCell>
        <mxCell id="nWNgb4miwz-LYuUAV93a-214" value="" style="shape=tableRow;horizontal=0;startSize=0;swimlaneHead=0;swimlaneBody=0;fillColor=none;collapsible=0;dropTarget=0;points=[[0,0.5],[1,0.5]];portConstraint=eastwest;top=0;left=0;right=0;bottom=1;html=1;" parent="nWNgb4miwz-LYuUAV93a-210" vertex="1">
          <mxGeometry y="60" width="180" height="30" as="geometry" />
        </mxCell>
        <mxCell id="nWNgb4miwz-LYuUAV93a-215" value="외래키" style="shape=partialRectangle;connectable=0;fillColor=none;top=0;left=0;bottom=0;right=0;fontStyle=1;overflow=hidden;html=1;whiteSpace=wrap;" parent="nWNgb4miwz-LYuUAV93a-214" vertex="1">
          <mxGeometry width="60" height="30" as="geometry">
            <mxRectangle width="60" height="30" as="alternateBounds" />
          </mxGeometry>
        </mxCell>
        <mxCell id="nWNgb4miwz-LYuUAV93a-216" value="ItemID" style="shape=partialRectangle;connectable=0;fillColor=none;top=0;left=0;bottom=0;right=0;align=left;spacingLeft=6;fontStyle=5;overflow=hidden;html=1;whiteSpace=wrap;" parent="nWNgb4miwz-LYuUAV93a-214" vertex="1">
          <mxGeometry x="60" width="120" height="30" as="geometry">
            <mxRectangle width="120" height="30" as="alternateBounds" />
          </mxGeometry>
        </mxCell>
        <mxCell id="nWNgb4miwz-LYuUAV93a-226" style="edgeStyle=orthogonalEdgeStyle;rounded=0;orthogonalLoop=1;jettySize=auto;html=1;strokeWidth=3;fillColor=#f8cecc;strokeColor=#b85450;" parent="1" source="nWNgb4miwz-LYuUAV93a-211" target="nWNgb4miwz-LYuUAV93a-19" edge="1">
          <mxGeometry relative="1" as="geometry" />
        </mxCell>
        <mxCell id="nWNgb4miwz-LYuUAV93a-227" style="edgeStyle=orthogonalEdgeStyle;rounded=0;orthogonalLoop=1;jettySize=auto;html=1;entryX=0.017;entryY=0.682;entryDx=0;entryDy=0;entryPerimeter=0;strokeWidth=3;fillColor=#f8cecc;strokeColor=#b85450;" parent="1" source="nWNgb4miwz-LYuUAV93a-214" target="nWNgb4miwz-LYuUAV93a-35" edge="1">
          <mxGeometry relative="1" as="geometry" />
        </mxCell>
        <mxCell id="nWNgb4miwz-LYuUAV93a-228" value="정착민이 소유중인 아이템" style="shape=table;startSize=30;container=1;collapsible=1;childLayout=tableLayout;fixedRows=1;rowLines=0;fontStyle=1;align=center;resizeLast=1;html=1;whiteSpace=wrap;fillColor=#dae8fc;gradientColor=#7ea6e0;strokeColor=#6c8ebf;" parent="1" vertex="1">
          <mxGeometry x="-306" y="290" width="180" height="90" as="geometry" />
        </mxCell>
        <mxCell id="nWNgb4miwz-LYuUAV93a-229" value="" style="shape=tableRow;horizontal=0;startSize=0;swimlaneHead=0;swimlaneBody=0;fillColor=none;collapsible=0;dropTarget=0;points=[[0,0.5],[1,0.5]];portConstraint=eastwest;top=0;left=0;right=0;bottom=0;html=1;" parent="nWNgb4miwz-LYuUAV93a-228" vertex="1">
          <mxGeometry y="30" width="180" height="30" as="geometry" />
        </mxCell>
        <mxCell id="nWNgb4miwz-LYuUAV93a-230" value="외래키" style="shape=partialRectangle;connectable=0;fillColor=none;top=0;left=0;bottom=0;right=0;fontStyle=1;overflow=hidden;html=1;whiteSpace=wrap;" parent="nWNgb4miwz-LYuUAV93a-229" vertex="1">
          <mxGeometry width="60" height="30" as="geometry">
            <mxRectangle width="60" height="30" as="alternateBounds" />
          </mxGeometry>
        </mxCell>
        <mxCell id="nWNgb4miwz-LYuUAV93a-231" value="ColonistID" style="shape=partialRectangle;connectable=0;fillColor=none;top=0;left=0;bottom=0;right=0;align=left;spacingLeft=6;fontStyle=1;overflow=hidden;html=1;whiteSpace=wrap;" parent="nWNgb4miwz-LYuUAV93a-229" vertex="1">
          <mxGeometry x="60" width="120" height="30" as="geometry">
            <mxRectangle width="120" height="30" as="alternateBounds" />
          </mxGeometry>
        </mxCell>
        <mxCell id="nWNgb4miwz-LYuUAV93a-232" value="" style="shape=tableRow;horizontal=0;startSize=0;swimlaneHead=0;swimlaneBody=0;fillColor=none;collapsible=0;dropTarget=0;points=[[0,0.5],[1,0.5]];portConstraint=eastwest;top=0;left=0;right=0;bottom=1;html=1;" parent="nWNgb4miwz-LYuUAV93a-228" vertex="1">
          <mxGeometry y="60" width="180" height="30" as="geometry" />
        </mxCell>
        <mxCell id="nWNgb4miwz-LYuUAV93a-233" value="외래키" style="shape=partialRectangle;connectable=0;fillColor=none;top=0;left=0;bottom=0;right=0;fontStyle=1;overflow=hidden;html=1;whiteSpace=wrap;" parent="nWNgb4miwz-LYuUAV93a-232" vertex="1">
          <mxGeometry width="60" height="30" as="geometry">
            <mxRectangle width="60" height="30" as="alternateBounds" />
          </mxGeometry>
        </mxCell>
        <mxCell id="nWNgb4miwz-LYuUAV93a-234" value="ItemID" style="shape=partialRectangle;connectable=0;fillColor=none;top=0;left=0;bottom=0;right=0;align=left;spacingLeft=6;fontStyle=5;overflow=hidden;html=1;whiteSpace=wrap;" parent="nWNgb4miwz-LYuUAV93a-232" vertex="1">
          <mxGeometry x="60" width="120" height="30" as="geometry">
            <mxRectangle width="120" height="30" as="alternateBounds" />
          </mxGeometry>
        </mxCell>
        <mxCell id="nWNgb4miwz-LYuUAV93a-235" style="edgeStyle=orthogonalEdgeStyle;rounded=0;orthogonalLoop=1;jettySize=auto;html=1;entryX=0.001;entryY=0.638;entryDx=0;entryDy=0;entryPerimeter=0;strokeWidth=3;fillColor=#ffe6cc;strokeColor=#d79b00;" parent="1" source="nWNgb4miwz-LYuUAV93a-229" target="nWNgb4miwz-LYuUAV93a-2" edge="1">
          <mxGeometry relative="1" as="geometry" />
        </mxCell>
        <mxCell id="nWNgb4miwz-LYuUAV93a-236" style="edgeStyle=orthogonalEdgeStyle;rounded=0;orthogonalLoop=1;jettySize=auto;html=1;entryX=0.01;entryY=0.262;entryDx=0;entryDy=0;entryPerimeter=0;strokeWidth=3;fillColor=#ffe6cc;strokeColor=#d79b00;" parent="1" source="nWNgb4miwz-LYuUAV93a-232" target="nWNgb4miwz-LYuUAV93a-35" edge="1">
          <mxGeometry relative="1" as="geometry">
            <Array as="points">
              <mxPoint x="-24" y="365" />
              <mxPoint x="-24" y="562" />
            </Array>
          </mxGeometry>
        </mxCell>
        <mxCell id="nWNgb4miwz-LYuUAV93a-237" value="조련" style="shape=table;startSize=30;container=1;collapsible=1;childLayout=tableLayout;fixedRows=1;rowLines=0;fontStyle=1;align=center;resizeLast=1;html=1;whiteSpace=wrap;fillColor=#dae8fc;gradientColor=#7ea6e0;strokeColor=#6c8ebf;" parent="1" vertex="1">
          <mxGeometry x="-306" y="569" width="180" height="120" as="geometry" />
        </mxCell>
        <mxCell id="nWNgb4miwz-LYuUAV93a-238" value="" style="shape=tableRow;horizontal=0;startSize=0;swimlaneHead=0;swimlaneBody=0;fillColor=none;collapsible=0;dropTarget=0;points=[[0,0.5],[1,0.5]];portConstraint=eastwest;top=0;left=0;right=0;bottom=0;html=1;" parent="nWNgb4miwz-LYuUAV93a-237" vertex="1">
          <mxGeometry y="30" width="180" height="30" as="geometry" />
        </mxCell>
        <mxCell id="nWNgb4miwz-LYuUAV93a-239" value="외래키" style="shape=partialRectangle;connectable=0;fillColor=none;top=0;left=0;bottom=0;right=0;fontStyle=1;overflow=hidden;html=1;whiteSpace=wrap;" parent="nWNgb4miwz-LYuUAV93a-238" vertex="1">
          <mxGeometry width="60" height="30" as="geometry">
            <mxRectangle width="60" height="30" as="alternateBounds" />
          </mxGeometry>
        </mxCell>
        <mxCell id="nWNgb4miwz-LYuUAV93a-240" value="ColonistID" style="shape=partialRectangle;connectable=0;fillColor=none;top=0;left=0;bottom=0;right=0;align=left;spacingLeft=6;fontStyle=1;overflow=hidden;html=1;whiteSpace=wrap;" parent="nWNgb4miwz-LYuUAV93a-238" vertex="1">
          <mxGeometry x="60" width="120" height="30" as="geometry">
            <mxRectangle width="120" height="30" as="alternateBounds" />
          </mxGeometry>
        </mxCell>
        <mxCell id="nWNgb4miwz-LYuUAV93a-241" value="" style="shape=tableRow;horizontal=0;startSize=0;swimlaneHead=0;swimlaneBody=0;fillColor=none;collapsible=0;dropTarget=0;points=[[0,0.5],[1,0.5]];portConstraint=eastwest;top=0;left=0;right=0;bottom=1;html=1;" parent="nWNgb4miwz-LYuUAV93a-237" vertex="1">
          <mxGeometry y="60" width="180" height="30" as="geometry" />
        </mxCell>
        <mxCell id="nWNgb4miwz-LYuUAV93a-242" value="외래키" style="shape=partialRectangle;connectable=0;fillColor=none;top=0;left=0;bottom=0;right=0;fontStyle=1;overflow=hidden;html=1;whiteSpace=wrap;" parent="nWNgb4miwz-LYuUAV93a-241" vertex="1">
          <mxGeometry width="60" height="30" as="geometry">
            <mxRectangle width="60" height="30" as="alternateBounds" />
          </mxGeometry>
        </mxCell>
        <mxCell id="nWNgb4miwz-LYuUAV93a-243" value="&lt;u&gt;AnimalID&lt;/u&gt;" style="shape=partialRectangle;connectable=0;fillColor=none;top=0;left=0;bottom=0;right=0;align=left;spacingLeft=6;fontStyle=1;overflow=hidden;html=1;whiteSpace=wrap;" parent="nWNgb4miwz-LYuUAV93a-241" vertex="1">
          <mxGeometry x="60" width="120" height="30" as="geometry">
            <mxRectangle width="120" height="30" as="alternateBounds" />
          </mxGeometry>
        </mxCell>
        <mxCell id="nWNgb4miwz-LYuUAV93a-244" value="" style="shape=tableRow;horizontal=0;startSize=0;swimlaneHead=0;swimlaneBody=0;fillColor=none;collapsible=0;dropTarget=0;points=[[0,0.5],[1,0.5]];portConstraint=eastwest;top=0;left=0;right=0;bottom=0;html=1;" parent="nWNgb4miwz-LYuUAV93a-237" vertex="1">
          <mxGeometry y="90" width="180" height="30" as="geometry" />
        </mxCell>
        <mxCell id="nWNgb4miwz-LYuUAV93a-245" value="" style="shape=partialRectangle;connectable=0;fillColor=none;top=0;left=0;bottom=0;right=0;editable=1;overflow=hidden;html=1;whiteSpace=wrap;" parent="nWNgb4miwz-LYuUAV93a-244" vertex="1">
          <mxGeometry width="60" height="30" as="geometry">
            <mxRectangle width="60" height="30" as="alternateBounds" />
          </mxGeometry>
        </mxCell>
        <mxCell id="nWNgb4miwz-LYuUAV93a-246" value="조련단계" style="shape=partialRectangle;connectable=0;fillColor=none;top=0;left=0;bottom=0;right=0;align=left;spacingLeft=6;overflow=hidden;html=1;whiteSpace=wrap;" parent="nWNgb4miwz-LYuUAV93a-244" vertex="1">
          <mxGeometry x="60" width="120" height="30" as="geometry">
            <mxRectangle width="120" height="30" as="alternateBounds" />
          </mxGeometry>
        </mxCell>
        <mxCell id="nWNgb4miwz-LYuUAV93a-253" style="edgeStyle=orthogonalEdgeStyle;rounded=0;orthogonalLoop=1;jettySize=auto;html=1;strokeWidth=3;fillColor=#d5e8d4;strokeColor=#82b366;" parent="1" source="nWNgb4miwz-LYuUAV93a-238" target="nWNgb4miwz-LYuUAV93a-2" edge="1">
          <mxGeometry relative="1" as="geometry">
            <Array as="points">
              <mxPoint x="-9" y="614" />
              <mxPoint x="-9" y="96" />
            </Array>
          </mxGeometry>
        </mxCell>
        <mxCell id="nWNgb4miwz-LYuUAV93a-254" style="edgeStyle=orthogonalEdgeStyle;rounded=0;orthogonalLoop=1;jettySize=auto;html=1;strokeWidth=3;fillColor=#d5e8d4;strokeColor=#82b366;" parent="1" source="nWNgb4miwz-LYuUAV93a-241" target="nWNgb4miwz-LYuUAV93a-64" edge="1">
          <mxGeometry relative="1" as="geometry" />
        </mxCell>
        <mxCell id="g-p62DBfAtP53sRGqjuf-30" value="동물-건강" style="shape=table;startSize=30;container=1;collapsible=1;childLayout=tableLayout;fixedRows=1;rowLines=0;fontStyle=1;align=center;resizeLast=1;html=1;whiteSpace=wrap;fillColor=#dae8fc;gradientColor=#7ea6e0;strokeColor=#6c8ebf;" vertex="1" parent="1">
          <mxGeometry x="251.09" y="939" width="213.82363891601562" height="90" as="geometry" />
        </mxCell>
        <mxCell id="g-p62DBfAtP53sRGqjuf-31" value="" style="shape=tableRow;horizontal=0;startSize=0;swimlaneHead=0;swimlaneBody=0;fillColor=none;collapsible=0;dropTarget=0;points=[[0,0.5],[1,0.5]];portConstraint=eastwest;top=0;left=0;right=0;bottom=1;html=1;" vertex="1" parent="g-p62DBfAtP53sRGqjuf-30">
          <mxGeometry y="30" width="213.82363891601562" height="30" as="geometry" />
        </mxCell>
        <mxCell id="g-p62DBfAtP53sRGqjuf-32" value="외래키" style="shape=partialRectangle;connectable=0;fillColor=none;top=0;left=0;bottom=0;right=0;fontStyle=1;overflow=hidden;html=1;whiteSpace=wrap;" vertex="1" parent="g-p62DBfAtP53sRGqjuf-31">
          <mxGeometry width="60" height="30" as="geometry">
            <mxRectangle width="60" height="30" as="alternateBounds" />
          </mxGeometry>
        </mxCell>
        <mxCell id="g-p62DBfAtP53sRGqjuf-33" value="&lt;u&gt;AnimalID&lt;/u&gt;" style="shape=partialRectangle;connectable=0;fillColor=none;top=0;left=0;bottom=0;right=0;align=left;spacingLeft=6;fontStyle=1;overflow=hidden;html=1;whiteSpace=wrap;" vertex="1" parent="g-p62DBfAtP53sRGqjuf-31">
          <mxGeometry x="60" width="153.82363891601562" height="30" as="geometry">
            <mxRectangle width="153.82363891601562" height="30" as="alternateBounds" />
          </mxGeometry>
        </mxCell>
        <mxCell id="g-p62DBfAtP53sRGqjuf-34" value="" style="shape=tableRow;horizontal=0;startSize=0;swimlaneHead=0;swimlaneBody=0;fillColor=none;collapsible=0;dropTarget=0;points=[[0,0.5],[1,0.5]];portConstraint=eastwest;top=0;left=0;right=0;bottom=0;html=1;" vertex="1" parent="g-p62DBfAtP53sRGqjuf-30">
          <mxGeometry y="60" width="213.82363891601562" height="30" as="geometry" />
        </mxCell>
        <mxCell id="g-p62DBfAtP53sRGqjuf-35" value="" style="shape=partialRectangle;connectable=0;fillColor=none;top=0;left=0;bottom=0;right=0;editable=1;overflow=hidden;html=1;whiteSpace=wrap;" vertex="1" parent="g-p62DBfAtP53sRGqjuf-34">
          <mxGeometry width="60" height="30" as="geometry">
            <mxRectangle width="60" height="30" as="alternateBounds" />
          </mxGeometry>
        </mxCell>
        <mxCell id="g-p62DBfAtP53sRGqjuf-36" value="&lt;b&gt;건강&lt;/b&gt;" style="shape=partialRectangle;connectable=0;fillColor=none;top=0;left=0;bottom=0;right=0;align=left;spacingLeft=6;overflow=hidden;html=1;whiteSpace=wrap;" vertex="1" parent="g-p62DBfAtP53sRGqjuf-34">
          <mxGeometry x="60" width="153.82363891601562" height="30" as="geometry">
            <mxRectangle width="153.82363891601562" height="30" as="alternateBounds" />
          </mxGeometry>
        </mxCell>
        <mxCell id="g-p62DBfAtP53sRGqjuf-40" value="건강-건강에 따른 영향" style="shape=table;startSize=31;container=1;collapsible=1;childLayout=tableLayout;fixedRows=1;rowLines=0;fontStyle=1;align=center;resizeLast=1;html=1;whiteSpace=wrap;fillColor=#dae8fc;gradientColor=#7ea6e0;strokeColor=#6c8ebf;" vertex="1" parent="1">
          <mxGeometry x="517" y="939" width="213.82363891601562" height="91" as="geometry" />
        </mxCell>
        <mxCell id="g-p62DBfAtP53sRGqjuf-41" value="" style="shape=tableRow;horizontal=0;startSize=0;swimlaneHead=0;swimlaneBody=0;fillColor=none;collapsible=0;dropTarget=0;points=[[0,0.5],[1,0.5]];portConstraint=eastwest;top=0;left=0;right=0;bottom=1;html=1;" vertex="1" parent="g-p62DBfAtP53sRGqjuf-40">
          <mxGeometry y="31" width="213.82363891601562" height="30" as="geometry" />
        </mxCell>
        <mxCell id="g-p62DBfAtP53sRGqjuf-42" value="외래키" style="shape=partialRectangle;connectable=0;fillColor=none;top=0;left=0;bottom=0;right=0;fontStyle=1;overflow=hidden;html=1;whiteSpace=wrap;" vertex="1" parent="g-p62DBfAtP53sRGqjuf-41">
          <mxGeometry width="60" height="30" as="geometry">
            <mxRectangle width="60" height="30" as="alternateBounds" />
          </mxGeometry>
        </mxCell>
        <mxCell id="g-p62DBfAtP53sRGqjuf-43" value="&lt;u&gt;건강&lt;/u&gt;" style="shape=partialRectangle;connectable=0;fillColor=none;top=0;left=0;bottom=0;right=0;align=left;spacingLeft=6;fontStyle=1;overflow=hidden;html=1;whiteSpace=wrap;" vertex="1" parent="g-p62DBfAtP53sRGqjuf-41">
          <mxGeometry x="60" width="153.82363891601562" height="30" as="geometry">
            <mxRectangle width="153.82363891601562" height="30" as="alternateBounds" />
          </mxGeometry>
        </mxCell>
        <mxCell id="g-p62DBfAtP53sRGqjuf-44" value="" style="shape=tableRow;horizontal=0;startSize=0;swimlaneHead=0;swimlaneBody=0;fillColor=none;collapsible=0;dropTarget=0;points=[[0,0.5],[1,0.5]];portConstraint=eastwest;top=0;left=0;right=0;bottom=0;html=1;" vertex="1" parent="g-p62DBfAtP53sRGqjuf-40">
          <mxGeometry y="61" width="213.82363891601562" height="30" as="geometry" />
        </mxCell>
        <mxCell id="g-p62DBfAtP53sRGqjuf-45" value="" style="shape=partialRectangle;connectable=0;fillColor=none;top=0;left=0;bottom=0;right=0;editable=1;overflow=hidden;html=1;whiteSpace=wrap;" vertex="1" parent="g-p62DBfAtP53sRGqjuf-44">
          <mxGeometry width="60" height="30" as="geometry">
            <mxRectangle width="60" height="30" as="alternateBounds" />
          </mxGeometry>
        </mxCell>
        <mxCell id="g-p62DBfAtP53sRGqjuf-46" value="&lt;b&gt;영향&lt;/b&gt;" style="shape=partialRectangle;connectable=0;fillColor=none;top=0;left=0;bottom=0;right=0;align=left;spacingLeft=6;overflow=hidden;html=1;whiteSpace=wrap;" vertex="1" parent="g-p62DBfAtP53sRGqjuf-44">
          <mxGeometry x="60" width="153.82363891601562" height="30" as="geometry">
            <mxRectangle width="153.82363891601562" height="30" as="alternateBounds" />
          </mxGeometry>
        </mxCell>
        <mxCell id="g-p62DBfAtP53sRGqjuf-49" style="edgeStyle=none;curved=1;rounded=0;orthogonalLoop=1;jettySize=auto;html=1;exitX=0;exitY=0.5;exitDx=0;exitDy=0;entryX=1;entryY=0.5;entryDx=0;entryDy=0;fontSize=12;startSize=8;endSize=8;fillColor=#f8cecc;strokeColor=#b85450;strokeWidth=3;" edge="1" parent="1" source="g-p62DBfAtP53sRGqjuf-41" target="g-p62DBfAtP53sRGqjuf-34">
          <mxGeometry relative="1" as="geometry" />
        </mxCell>
        <mxCell id="g-p62DBfAtP53sRGqjuf-52" style="edgeStyle=none;curved=1;rounded=0;orthogonalLoop=1;jettySize=auto;html=1;exitX=0;exitY=0.5;exitDx=0;exitDy=0;entryX=0.982;entryY=0.786;entryDx=0;entryDy=0;entryPerimeter=0;fontSize=12;startSize=8;endSize=8;fillColor=#f8cecc;strokeColor=#b85450;strokeWidth=3;" edge="1" parent="1" source="g-p62DBfAtP53sRGqjuf-31" target="nWNgb4miwz-LYuUAV93a-64">
          <mxGeometry relative="1" as="geometry" />
        </mxCell>
        <mxCell id="g-p62DBfAtP53sRGqjuf-53" value="정착민-건강" style="shape=table;startSize=30;container=1;collapsible=1;childLayout=tableLayout;fixedRows=1;rowLines=0;fontStyle=1;align=center;resizeLast=1;html=1;whiteSpace=wrap;fillColor=#dae8fc;gradientColor=#7ea6e0;strokeColor=#6c8ebf;" vertex="1" parent="1">
          <mxGeometry x="308" y="-79" width="213.82363891601562" height="90" as="geometry" />
        </mxCell>
        <mxCell id="g-p62DBfAtP53sRGqjuf-54" value="" style="shape=tableRow;horizontal=0;startSize=0;swimlaneHead=0;swimlaneBody=0;fillColor=none;collapsible=0;dropTarget=0;points=[[0,0.5],[1,0.5]];portConstraint=eastwest;top=0;left=0;right=0;bottom=1;html=1;" vertex="1" parent="g-p62DBfAtP53sRGqjuf-53">
          <mxGeometry y="30" width="213.82363891601562" height="30" as="geometry" />
        </mxCell>
        <mxCell id="g-p62DBfAtP53sRGqjuf-55" value="외래키" style="shape=partialRectangle;connectable=0;fillColor=none;top=0;left=0;bottom=0;right=0;fontStyle=1;overflow=hidden;html=1;whiteSpace=wrap;" vertex="1" parent="g-p62DBfAtP53sRGqjuf-54">
          <mxGeometry width="60" height="30" as="geometry">
            <mxRectangle width="60" height="30" as="alternateBounds" />
          </mxGeometry>
        </mxCell>
        <mxCell id="g-p62DBfAtP53sRGqjuf-56" value="&lt;u&gt;ColonistID&lt;/u&gt;" style="shape=partialRectangle;connectable=0;fillColor=none;top=0;left=0;bottom=0;right=0;align=left;spacingLeft=6;fontStyle=1;overflow=hidden;html=1;whiteSpace=wrap;" vertex="1" parent="g-p62DBfAtP53sRGqjuf-54">
          <mxGeometry x="60" width="153.82363891601562" height="30" as="geometry">
            <mxRectangle width="153.82363891601562" height="30" as="alternateBounds" />
          </mxGeometry>
        </mxCell>
        <mxCell id="g-p62DBfAtP53sRGqjuf-57" value="" style="shape=tableRow;horizontal=0;startSize=0;swimlaneHead=0;swimlaneBody=0;fillColor=none;collapsible=0;dropTarget=0;points=[[0,0.5],[1,0.5]];portConstraint=eastwest;top=0;left=0;right=0;bottom=0;html=1;" vertex="1" parent="g-p62DBfAtP53sRGqjuf-53">
          <mxGeometry y="60" width="213.82363891601562" height="30" as="geometry" />
        </mxCell>
        <mxCell id="g-p62DBfAtP53sRGqjuf-58" value="" style="shape=partialRectangle;connectable=0;fillColor=none;top=0;left=0;bottom=0;right=0;editable=1;overflow=hidden;html=1;whiteSpace=wrap;" vertex="1" parent="g-p62DBfAtP53sRGqjuf-57">
          <mxGeometry width="60" height="30" as="geometry">
            <mxRectangle width="60" height="30" as="alternateBounds" />
          </mxGeometry>
        </mxCell>
        <mxCell id="g-p62DBfAtP53sRGqjuf-59" value="&lt;b&gt;건강&lt;/b&gt;" style="shape=partialRectangle;connectable=0;fillColor=none;top=0;left=0;bottom=0;right=0;align=left;spacingLeft=6;overflow=hidden;html=1;whiteSpace=wrap;" vertex="1" parent="g-p62DBfAtP53sRGqjuf-57">
          <mxGeometry x="60" width="153.82363891601562" height="30" as="geometry">
            <mxRectangle width="153.82363891601562" height="30" as="alternateBounds" />
          </mxGeometry>
        </mxCell>
        <mxCell id="g-p62DBfAtP53sRGqjuf-60" value="건강-건강에 따른 영향" style="shape=table;startSize=30;container=1;collapsible=1;childLayout=tableLayout;fixedRows=1;rowLines=0;fontStyle=1;align=center;resizeLast=1;html=1;whiteSpace=wrap;fillColor=#dae8fc;gradientColor=#7ea6e0;strokeColor=#6c8ebf;" vertex="1" parent="1">
          <mxGeometry x="573.91" y="-79" width="213.82363891601562" height="90" as="geometry" />
        </mxCell>
        <mxCell id="g-p62DBfAtP53sRGqjuf-61" value="" style="shape=tableRow;horizontal=0;startSize=0;swimlaneHead=0;swimlaneBody=0;fillColor=none;collapsible=0;dropTarget=0;points=[[0,0.5],[1,0.5]];portConstraint=eastwest;top=0;left=0;right=0;bottom=1;html=1;" vertex="1" parent="g-p62DBfAtP53sRGqjuf-60">
          <mxGeometry y="30" width="213.82363891601562" height="30" as="geometry" />
        </mxCell>
        <mxCell id="g-p62DBfAtP53sRGqjuf-62" value="외래키" style="shape=partialRectangle;connectable=0;fillColor=none;top=0;left=0;bottom=0;right=0;fontStyle=1;overflow=hidden;html=1;whiteSpace=wrap;" vertex="1" parent="g-p62DBfAtP53sRGqjuf-61">
          <mxGeometry width="60" height="30" as="geometry">
            <mxRectangle width="60" height="30" as="alternateBounds" />
          </mxGeometry>
        </mxCell>
        <mxCell id="g-p62DBfAtP53sRGqjuf-63" value="&lt;u&gt;건강&lt;/u&gt;" style="shape=partialRectangle;connectable=0;fillColor=none;top=0;left=0;bottom=0;right=0;align=left;spacingLeft=6;fontStyle=1;overflow=hidden;html=1;whiteSpace=wrap;" vertex="1" parent="g-p62DBfAtP53sRGqjuf-61">
          <mxGeometry x="60" width="153.82363891601562" height="30" as="geometry">
            <mxRectangle width="153.82363891601562" height="30" as="alternateBounds" />
          </mxGeometry>
        </mxCell>
        <mxCell id="g-p62DBfAtP53sRGqjuf-64" value="" style="shape=tableRow;horizontal=0;startSize=0;swimlaneHead=0;swimlaneBody=0;fillColor=none;collapsible=0;dropTarget=0;points=[[0,0.5],[1,0.5]];portConstraint=eastwest;top=0;left=0;right=0;bottom=0;html=1;" vertex="1" parent="g-p62DBfAtP53sRGqjuf-60">
          <mxGeometry y="60" width="213.82363891601562" height="30" as="geometry" />
        </mxCell>
        <mxCell id="g-p62DBfAtP53sRGqjuf-65" value="" style="shape=partialRectangle;connectable=0;fillColor=none;top=0;left=0;bottom=0;right=0;editable=1;overflow=hidden;html=1;whiteSpace=wrap;" vertex="1" parent="g-p62DBfAtP53sRGqjuf-64">
          <mxGeometry width="60" height="30" as="geometry">
            <mxRectangle width="60" height="30" as="alternateBounds" />
          </mxGeometry>
        </mxCell>
        <mxCell id="g-p62DBfAtP53sRGqjuf-66" value="&lt;b&gt;영향&lt;/b&gt;" style="shape=partialRectangle;connectable=0;fillColor=none;top=0;left=0;bottom=0;right=0;align=left;spacingLeft=6;overflow=hidden;html=1;whiteSpace=wrap;" vertex="1" parent="g-p62DBfAtP53sRGqjuf-64">
          <mxGeometry x="60" width="153.82363891601562" height="30" as="geometry">
            <mxRectangle width="153.82363891601562" height="30" as="alternateBounds" />
          </mxGeometry>
        </mxCell>
        <mxCell id="g-p62DBfAtP53sRGqjuf-68" style="edgeStyle=none;curved=1;rounded=0;orthogonalLoop=1;jettySize=auto;html=1;exitX=0;exitY=0.5;exitDx=0;exitDy=0;entryX=1;entryY=0.5;entryDx=0;entryDy=0;fontSize=12;startSize=8;endSize=8;fillColor=#f8cecc;strokeColor=#b85450;strokeWidth=3;" edge="1" parent="1" source="g-p62DBfAtP53sRGqjuf-54" target="nWNgb4miwz-LYuUAV93a-2">
          <mxGeometry relative="1" as="geometry" />
        </mxCell>
        <mxCell id="g-p62DBfAtP53sRGqjuf-70" style="edgeStyle=none;curved=1;rounded=0;orthogonalLoop=1;jettySize=auto;html=1;exitX=0;exitY=0.5;exitDx=0;exitDy=0;entryX=1;entryY=0.5;entryDx=0;entryDy=0;fontSize=12;startSize=8;endSize=8;fillColor=#f8cecc;strokeColor=#b85450;strokeWidth=3;" edge="1" parent="1" source="g-p62DBfAtP53sRGqjuf-61" target="g-p62DBfAtP53sRGqjuf-57">
          <mxGeometry relative="1" as="geometry" />
        </mxCell>
        <mxCell id="g-p62DBfAtP53sRGqjuf-71" value="건물에 미치는 이벤트의 영향" style="shape=table;startSize=30;container=1;collapsible=1;childLayout=tableLayout;fixedRows=1;rowLines=0;fontStyle=1;align=center;resizeLast=1;html=1;whiteSpace=wrap;fillColor=#dae8fc;gradientColor=#7ea6e0;strokeColor=#6c8ebf;" vertex="1" parent="1">
          <mxGeometry x="588" y="809" width="180" height="120" as="geometry" />
        </mxCell>
        <mxCell id="g-p62DBfAtP53sRGqjuf-72" value="" style="shape=tableRow;horizontal=0;startSize=0;swimlaneHead=0;swimlaneBody=0;fillColor=none;collapsible=0;dropTarget=0;points=[[0,0.5],[1,0.5]];portConstraint=eastwest;top=0;left=0;right=0;bottom=0;html=1;" vertex="1" parent="g-p62DBfAtP53sRGqjuf-71">
          <mxGeometry y="30" width="180" height="30" as="geometry" />
        </mxCell>
        <mxCell id="g-p62DBfAtP53sRGqjuf-73" value="외래키" style="shape=partialRectangle;connectable=0;fillColor=none;top=0;left=0;bottom=0;right=0;fontStyle=1;overflow=hidden;html=1;whiteSpace=wrap;" vertex="1" parent="g-p62DBfAtP53sRGqjuf-72">
          <mxGeometry width="60" height="30" as="geometry">
            <mxRectangle width="60" height="30" as="alternateBounds" />
          </mxGeometry>
        </mxCell>
        <mxCell id="g-p62DBfAtP53sRGqjuf-74" value="BuildingID" style="shape=partialRectangle;connectable=0;fillColor=none;top=0;left=0;bottom=0;right=0;align=left;spacingLeft=6;fontStyle=5;overflow=hidden;html=1;whiteSpace=wrap;" vertex="1" parent="g-p62DBfAtP53sRGqjuf-72">
          <mxGeometry x="60" width="120" height="30" as="geometry">
            <mxRectangle width="120" height="30" as="alternateBounds" />
          </mxGeometry>
        </mxCell>
        <mxCell id="g-p62DBfAtP53sRGqjuf-81" value="" style="shape=tableRow;horizontal=0;startSize=0;swimlaneHead=0;swimlaneBody=0;fillColor=none;collapsible=0;dropTarget=0;points=[[0,0.5],[1,0.5]];portConstraint=eastwest;top=0;left=0;right=0;bottom=1;html=1;" vertex="1" parent="g-p62DBfAtP53sRGqjuf-71">
          <mxGeometry y="60" width="180" height="30" as="geometry" />
        </mxCell>
        <mxCell id="g-p62DBfAtP53sRGqjuf-82" value="외래키" style="shape=partialRectangle;connectable=0;fillColor=none;top=0;left=0;bottom=0;right=0;fontStyle=1;overflow=hidden;html=1;whiteSpace=wrap;" vertex="1" parent="g-p62DBfAtP53sRGqjuf-81">
          <mxGeometry width="60" height="30" as="geometry">
            <mxRectangle width="60" height="30" as="alternateBounds" />
          </mxGeometry>
        </mxCell>
        <mxCell id="g-p62DBfAtP53sRGqjuf-83" value="&lt;u&gt;EventID&lt;/u&gt;" style="shape=partialRectangle;connectable=0;fillColor=none;top=0;left=0;bottom=0;right=0;align=left;spacingLeft=6;fontStyle=1;overflow=hidden;html=1;whiteSpace=wrap;" vertex="1" parent="g-p62DBfAtP53sRGqjuf-81">
          <mxGeometry x="60" width="120" height="30" as="geometry">
            <mxRectangle width="120" height="30" as="alternateBounds" />
          </mxGeometry>
        </mxCell>
        <mxCell id="g-p62DBfAtP53sRGqjuf-84" value="" style="shape=tableRow;horizontal=0;startSize=0;swimlaneHead=0;swimlaneBody=0;fillColor=none;collapsible=0;dropTarget=0;points=[[0,0.5],[1,0.5]];portConstraint=eastwest;top=0;left=0;right=0;bottom=0;html=1;" vertex="1" parent="g-p62DBfAtP53sRGqjuf-71">
          <mxGeometry y="90" width="180" height="30" as="geometry" />
        </mxCell>
        <mxCell id="g-p62DBfAtP53sRGqjuf-85" value="" style="shape=partialRectangle;connectable=0;fillColor=none;top=0;left=0;bottom=0;right=0;editable=1;overflow=hidden;html=1;whiteSpace=wrap;" vertex="1" parent="g-p62DBfAtP53sRGqjuf-84">
          <mxGeometry width="60" height="30" as="geometry">
            <mxRectangle width="60" height="30" as="alternateBounds" />
          </mxGeometry>
        </mxCell>
        <mxCell id="g-p62DBfAtP53sRGqjuf-86" value="영향" style="shape=partialRectangle;connectable=0;fillColor=none;top=0;left=0;bottom=0;right=0;align=left;spacingLeft=6;overflow=hidden;html=1;whiteSpace=wrap;" vertex="1" parent="g-p62DBfAtP53sRGqjuf-84">
          <mxGeometry x="60" width="120" height="30" as="geometry">
            <mxRectangle width="120" height="30" as="alternateBounds" />
          </mxGeometry>
        </mxCell>
        <mxCell id="g-p62DBfAtP53sRGqjuf-87" style="edgeStyle=none;curved=1;rounded=0;orthogonalLoop=1;jettySize=auto;html=1;entryX=1;entryY=0.5;entryDx=0;entryDy=0;fontSize=12;startSize=8;endSize=8;fillColor=#d5e8d4;strokeColor=#82b366;strokeWidth=3;exitX=-0.003;exitY=0.348;exitDx=0;exitDy=0;exitPerimeter=0;" edge="1" parent="1" source="g-p62DBfAtP53sRGqjuf-81" target="nWNgb4miwz-LYuUAV93a-48">
          <mxGeometry relative="1" as="geometry" />
        </mxCell>
        <mxCell id="g-p62DBfAtP53sRGqjuf-95" style="edgeStyle=none;curved=1;rounded=0;orthogonalLoop=1;jettySize=auto;html=1;entryX=0.989;entryY=0.836;entryDx=0;entryDy=0;entryPerimeter=0;fontSize=12;startSize=8;endSize=8;exitX=0;exitY=0.5;exitDx=0;exitDy=0;fillColor=#d5e8d4;strokeColor=#82b366;strokeWidth=3;" edge="1" parent="1" source="g-p62DBfAtP53sRGqjuf-72" target="nWNgb4miwz-LYuUAV93a-19">
          <mxGeometry relative="1" as="geometry" />
        </mxCell>
        <mxCell id="g-p62DBfAtP53sRGqjuf-99" value="건물에 미치는 이벤트의 영향" style="shape=table;startSize=30;container=1;collapsible=1;childLayout=tableLayout;fixedRows=1;rowLines=0;fontStyle=1;align=center;resizeLast=1;html=1;whiteSpace=wrap;fillColor=#dae8fc;gradientColor=#7ea6e0;strokeColor=#6c8ebf;" vertex="1" parent="1">
          <mxGeometry x="588" y="680" width="180" height="120" as="geometry" />
        </mxCell>
        <mxCell id="g-p62DBfAtP53sRGqjuf-100" value="" style="shape=tableRow;horizontal=0;startSize=0;swimlaneHead=0;swimlaneBody=0;fillColor=none;collapsible=0;dropTarget=0;points=[[0,0.5],[1,0.5]];portConstraint=eastwest;top=0;left=0;right=0;bottom=0;html=1;" vertex="1" parent="g-p62DBfAtP53sRGqjuf-99">
          <mxGeometry y="30" width="180" height="30" as="geometry" />
        </mxCell>
        <mxCell id="g-p62DBfAtP53sRGqjuf-101" value="외래키" style="shape=partialRectangle;connectable=0;fillColor=none;top=0;left=0;bottom=0;right=0;fontStyle=1;overflow=hidden;html=1;whiteSpace=wrap;" vertex="1" parent="g-p62DBfAtP53sRGqjuf-100">
          <mxGeometry width="60" height="30" as="geometry">
            <mxRectangle width="60" height="30" as="alternateBounds" />
          </mxGeometry>
        </mxCell>
        <mxCell id="g-p62DBfAtP53sRGqjuf-102" value="AnimalID" style="shape=partialRectangle;connectable=0;fillColor=none;top=0;left=0;bottom=0;right=0;align=left;spacingLeft=6;fontStyle=5;overflow=hidden;html=1;whiteSpace=wrap;" vertex="1" parent="g-p62DBfAtP53sRGqjuf-100">
          <mxGeometry x="60" width="120" height="30" as="geometry">
            <mxRectangle width="120" height="30" as="alternateBounds" />
          </mxGeometry>
        </mxCell>
        <mxCell id="g-p62DBfAtP53sRGqjuf-103" value="" style="shape=tableRow;horizontal=0;startSize=0;swimlaneHead=0;swimlaneBody=0;fillColor=none;collapsible=0;dropTarget=0;points=[[0,0.5],[1,0.5]];portConstraint=eastwest;top=0;left=0;right=0;bottom=1;html=1;" vertex="1" parent="g-p62DBfAtP53sRGqjuf-99">
          <mxGeometry y="60" width="180" height="30" as="geometry" />
        </mxCell>
        <mxCell id="g-p62DBfAtP53sRGqjuf-104" value="외래키" style="shape=partialRectangle;connectable=0;fillColor=none;top=0;left=0;bottom=0;right=0;fontStyle=1;overflow=hidden;html=1;whiteSpace=wrap;" vertex="1" parent="g-p62DBfAtP53sRGqjuf-103">
          <mxGeometry width="60" height="30" as="geometry">
            <mxRectangle width="60" height="30" as="alternateBounds" />
          </mxGeometry>
        </mxCell>
        <mxCell id="g-p62DBfAtP53sRGqjuf-105" value="&lt;u&gt;EventID&lt;/u&gt;" style="shape=partialRectangle;connectable=0;fillColor=none;top=0;left=0;bottom=0;right=0;align=left;spacingLeft=6;fontStyle=1;overflow=hidden;html=1;whiteSpace=wrap;" vertex="1" parent="g-p62DBfAtP53sRGqjuf-103">
          <mxGeometry x="60" width="120" height="30" as="geometry">
            <mxRectangle width="120" height="30" as="alternateBounds" />
          </mxGeometry>
        </mxCell>
        <mxCell id="g-p62DBfAtP53sRGqjuf-106" value="" style="shape=tableRow;horizontal=0;startSize=0;swimlaneHead=0;swimlaneBody=0;fillColor=none;collapsible=0;dropTarget=0;points=[[0,0.5],[1,0.5]];portConstraint=eastwest;top=0;left=0;right=0;bottom=0;html=1;" vertex="1" parent="g-p62DBfAtP53sRGqjuf-99">
          <mxGeometry y="90" width="180" height="30" as="geometry" />
        </mxCell>
        <mxCell id="g-p62DBfAtP53sRGqjuf-107" value="" style="shape=partialRectangle;connectable=0;fillColor=none;top=0;left=0;bottom=0;right=0;editable=1;overflow=hidden;html=1;whiteSpace=wrap;" vertex="1" parent="g-p62DBfAtP53sRGqjuf-106">
          <mxGeometry width="60" height="30" as="geometry">
            <mxRectangle width="60" height="30" as="alternateBounds" />
          </mxGeometry>
        </mxCell>
        <mxCell id="g-p62DBfAtP53sRGqjuf-108" value="영향" style="shape=partialRectangle;connectable=0;fillColor=none;top=0;left=0;bottom=0;right=0;align=left;spacingLeft=6;overflow=hidden;html=1;whiteSpace=wrap;" vertex="1" parent="g-p62DBfAtP53sRGqjuf-106">
          <mxGeometry x="60" width="120" height="30" as="geometry">
            <mxRectangle width="120" height="30" as="alternateBounds" />
          </mxGeometry>
        </mxCell>
        <mxCell id="g-p62DBfAtP53sRGqjuf-109" style="edgeStyle=none;curved=1;rounded=0;orthogonalLoop=1;jettySize=auto;html=1;exitX=0;exitY=0.5;exitDx=0;exitDy=0;entryX=1;entryY=0.5;entryDx=0;entryDy=0;fontSize=12;startSize=8;endSize=8;fillColor=#e1d5e7;strokeColor=#9673a6;strokeWidth=3;" edge="1" parent="1" source="g-p62DBfAtP53sRGqjuf-100" target="nWNgb4miwz-LYuUAV93a-64">
          <mxGeometry relative="1" as="geometry" />
        </mxCell>
        <mxCell id="g-p62DBfAtP53sRGqjuf-110" style="edgeStyle=none;curved=1;rounded=0;orthogonalLoop=1;jettySize=auto;html=1;exitX=0;exitY=0.5;exitDx=0;exitDy=0;entryX=1;entryY=0.5;entryDx=0;entryDy=0;fontSize=12;startSize=8;endSize=8;fillColor=#e1d5e7;strokeColor=#9673a6;strokeWidth=3;" edge="1" parent="1" source="g-p62DBfAtP53sRGqjuf-103" target="nWNgb4miwz-LYuUAV93a-48">
          <mxGeometry relative="1" as="geometry" />
        </mxCell>
      </root>
    </mxGraphModel>
  </diagram>
</mxfile>
